<?xml version="1.0" encoding="UTF-8"?>
<!DOCTYPE svg PUBLIC "-//W3C//DTD SVG 1.1//EN" "http://www.w3.org/Graphics/SVG/1.1/DTD/svg11.dtd">
<!-- Creator: CorelDRAW -->
<svg xmlns="http://www.w3.org/2000/svg" xml:space="preserve" width="35.553mm" height="9.094mm" version="1.1" style="shape-rendering:geometricPrecision; text-rendering:geometricPrecision; image-rendering:optimizeQuality; fill-rule:evenodd; clip-rule:evenodd"
viewBox="0 0 3555.3 909.4"
 xmlns:xlink="http://www.w3.org/1999/xlink"
 xmlns:xodm="http://www.corel.com/coreldraw/odm/2003">
 <defs>
  <style type="text/css">
   <![CDATA[
    .fil0 {fill:#201E1E}
    .fil5 {fill:#2B0C0B}
    .fil3 {fill:#542C2A}
    .fil8 {fill:#79544C}
    .fil2 {fill:#8C0509}
    .fil9 {fill:#A38682}
    .fil6 {fill:#A4645B}
    .fil4 {fill:#A52D32}
    .fil7 {fill:#C2ABA4}
    .fil1 {fill:#FEFEFE}
   ]]>
  </style>
 </defs>
 <g id="Capa_x0020_1">
  <metadata id="CorelCorpID_0Corel-Layer"/>
  <g id="_2005949105776">
   <path class="fil0" d="M1012.63 432.91l-215.57 144.58 215.57 144.58 0 -289.16zm1530.04 0l215.56 144.58 -215.56 144.58 0 -289.16zm303.12 -5.13l-39.44 0 0 299.42 39.44 0 0 -299.42zm-765.7 241.69c-39.88,138.57 -167.59,239.95 -318.99,239.95 -183.32,0 -331.93,-148.61 -331.93,-331.93 0,-183.31 148.61,-331.92 331.93,-331.92 222.77,0 378.53,216.93 318.99,423.9zm-1370.59 -241.69l39.44 0 0 299.42 -39.44 0 0 -299.42z"/>
   <g>
    <path class="fil1" d="M1777.03 618.46l0.85 0.26c3,0.21 2.71,-0.71 2,1.86 2.17,-0.82 1.6,-1.27 1.96,0.91l-0.15 2.27c-2.01,3.75 -1.4,4.42 -6.74,6 -5.75,1.7 -24.51,2.33 -21.22,-9.99 7.35,-2.12 11.84,1.82 23.3,-1.31zm56.12 -1.18l-1.43 1.69 -2.59 -0.69c-2.34,1.72 -1.79,1.51 -6.02,1.99 -2.84,0.32 -4.65,0.21 -7.47,-0.21 -10.38,-1.55 -18.35,-9.31 -14.19,-20.36l2.18 -3.66 0.35 -0.93c0.47,-2.1 -0.2,-1.61 1.86,-1.61l-0.19 0.12c0.49,-2.39 -0.28,-1.95 1.8,-1.92 -0.66,-2.11 -1.16,-1.71 0.94,-1.6 -0.45,-1.99 -0.7,-1.51 1.26,-0.81 -0.22,-2.35 -0.7,-1.55 1.7,-2.19l0.27 0.14c-0.89,-2.59 -1.1,-1.93 1.5,-1.05 -0.93,-2.23 -1.34,-1.97 0.92,-1.06 0,-2.21 -0.44,-1.36 2.28,-1.68l0.11 0.25 2.24 -1.52c10.89,-6.13 24.32,-0.16 27.57,8.41 4.52,11.95 -5.12,25.29 -13.09,26.69zm-146.33 -36.09l-0.34 -0.12c0.45,-2.37 -0.32,-2.06 1.75,-1.68 -0.66,-2.51 -1.39,-2.11 0.86,-2.11 0.56,-1.5 -0.83,-0.67 2.02,-2.57l1.45 -0.55 2.49 -1.94 -0.43 -0.09 2.16 -1.19 0.86 0.58c0.94,-1.82 -2.02,-1.1 3.68,-1.7 17.75,-2.76 30.1,13.11 29.39,26.33 -1.21,22.22 -28.09,18.68 -33.15,12.4 -2.44,-0.49 -2.03,0.3 -1.86,-1.87 -2.23,0.65 -1.74,1.13 -1.72,-1.12 -2.93,-0.45 -0.02,2.25 -2.96,-1.59l-0.99 -1.41c-1.49,-1.39 -1.21,-1.05 -2.5,-3.91l0.45 0.14c-2.42,0 -1.45,0.45 -1.69,-2.65l0.51 -0.15 -1.91 -3.04 0.48 -1.4c-0.66,-1.1 -0.82,-0.73 -1.26,-3.03 -0.18,-0.97 -0.25,-2.15 -0.04,-3.09 1.14,-5.28 1.84,-3.39 2.75,-4.24zm195.91 -68.05l0.56 0.2c-0.86,4.61 0.06,2.6 -1.9,3.19 -0.37,6.32 -3.47,10.41 -6.84,15.68 -4.09,6.39 -7.13,7.65 -12.36,10.94l-0.24 0.36 -1.14 1.35c-1.36,1.05 -1.9,0.87 -2.72,1.22l-0.95 1.17 -1.25 0.34 -0.9 0.98c-13.67,4.53 -28.11,8.16 -43.42,9.63 -21.51,2.07 -26.11,3.78 -47.82,0.33l-3.33 -1.25 -3.85 -0.08 -5.15 -1.06 -15.12 -1.28c-17.26,-3.64 -35.79,-7.64 -51.41,-13.77l-1.63 -1.16 -1.76 0.08 -1.18 -2.15 -0.33 0.44c-2.69,-0.31 -2.23,0.53 -2.23,-1.74l-3.06 -0.4 -1.13 -1.35c-5.56,-2.14 -1.7,0.3 -2.17,-2.84l-0.88 0.41c-2.31,-1.44 -2.04,-1.22 -3.19,-2.73l-1.29 -1.08 -1.23 -1.34c-1.02,-1.15 -0.05,0.65 -1.63,-2.06 -1.1,-1.89 -0.3,-0.6 -1.07,-2.87 -1.87,0.25 -1.23,0.59 -1.61,-1.45l0.09 -0.55c-12.69,-9.46 0.27,-42.03 6.83,-52.13 5.13,-7.88 9.25,-13.98 16.23,-18.91 4.39,-3.12 15.91,-11.92 20.87,-13.03 -0.22,-2.13 -0.61,-1.38 1.83,-1.69l2.66 -0.94c0.87,-2.08 -1.35,-1.75 2.73,-1.29l2.14 -1.39 10.29 -3.99 1.65 -1.69 4.96 -0.45c0.56,-1.87 -1.37,-1.04 2.98,-1.76l0.45 0.54c0.8,-1.92 -1.76,-1.09 3.09,-1.83 11.87,-4.68 21.3,-11.53 33.65,-11.57l5.2 -1.14 3.43 -0.11c1.41,0.09 2.96,0.1 4.48,0.5 2.3,0.6 1.65,0.61 2.82,1.4 5.49,-0.4 17.6,4.05 22.21,7.99l1.05 0.24 2.02 1.43 0.32 -0.16 2.06 1.54 0.44 -0.26 2.14 1.47 0.52 -0.25c2.35,0.35 1.93,-0.39 1.93,1.6l0.05 -0.27c2.71,0.34 2.27,-0.51 2.27,1.71l-0.09 -0.29c2.82,0.33 2.37,-0.56 2.37,1.74l0.14 -0.42c2.69,0.32 2.24,-0.53 2.24,1.68 7.62,0.77 28.9,16.26 33.4,20.23 5.9,5.2 22.79,19.39 22.82,30.81 1.07,1.11 1.33,-0.51 2.52,4.25 0.35,1.41 0.4,4.94 0.51,6.55l0.38 3.53c0.03,4 -0.09,7.87 -0.55,11.8 -0.21,1.74 -0.17,2.57 -0.74,4.16 -1.44,3.98 -0.86,1.86 -2.16,3.24zm-163.85 -133.89l-2.1 0.4 -1.31 0.92c-26.22,8.39 -45.53,29.03 -60.19,47.74l-6.49 8.53c-4.4,6.62 -10.98,18.79 -12.54,27.92 -8.75,30.14 -7.75,65.2 -5.75,97.09 1.3,20.54 4.8,83.82 -0.8,100.7l2.19 -0.25 3.16 0.36c15.18,-8.62 21.55,16.61 15.68,25.12l0.73 3.24 -0.89 2.31 -0.3 2.67c-1.14,2.92 -1.86,5.56 -2.73,8.35l-3.28 7.54 -0.38 2.79 -1.77 1.64 -0.74 5.2 -0.91 0.76 -1.74 5.6 -0.04 2.19c2.32,6.68 6.28,10.33 14.03,10.29 8.58,-0.04 11.47,-4.72 16.87,-6.57 -0.48,-2.08 -0.99,-1.7 1.03,-1.53 0.85,-2.1 0.84,-1.91 2.13,-3.05 3.44,-7.91 5.87,-11.84 7.42,-22.27 1.22,-8.18 0.72,-20.18 4.51,-25.6l0.14 -0.92 1.09 -2.09 1.31 -1.92 4.19 -5.61 1.71 -1.33 1.2 -1.33c-0.15,-1.87 -0.55,-1.42 1.36,-1.17 -0.64,-2.46 -1.09,-2.06 1.3,-1.21 0,-3.43 -1.04,-2.02 1.56,-2.1 1.03,-2 0.11,-0.63 1.41,-2.41 0.21,-0.29 0.9,-1.13 1.14,-1.4 6.75,-7.51 18.82,-12.6 27.85,-15.62 2.19,-0.83 3.5,-1.28 7.04,-1.87 18.79,-2.54 28.66,3.23 37.04,13.15 3.64,2.83 1.22,0.44 1.81,3.45l2.44 1.76c2.37,1.95 0.71,0.62 1.84,1.87l3.8 1.68c2.92,0.73 5.87,0.43 7.13,2.71l8.05 0.43 5.28 1.54c9.99,-1.31 37.77,1.57 51.09,1.59 12.04,0.02 34.43,3.66 38.87,12.4 2.14,1.54 2.74,1.68 4.42,3.03 2.66,2.13 1.35,0.76 3.09,3.5l2.43 2.21 1.58 1.58c1.85,0.73 0.37,-0.46 1,1.84 2.46,-0.53 1.92,-0.83 0.87,1.46 2.75,-0.77 2.28,-1.42 1.92,1.3 1.84,-0.71 1.2,-0.91 1.56,1.21l0.15 1.27 2.04 0.87c2.1,-0.4 1.7,-0.91 1.54,1.12 2.3,1.42 0.5,1.28 2.13,0.21 -9.53,-7.78 -14.48,-61.44 -14.59,-77.54 -0.09,-11.98 0.88,-79.91 4.94,-86.05l-0.58 -41.3 -0.16 -4.4 -0.04 -1.87 -1 -5.66c-4.24,-17.81 -10.76,-33.71 -19.72,-48.11 -4.71,-7.56 -9.52,-13.75 -14.26,-20.9 -3.64,-5.5 -13.98,-15.19 -14.97,-17.75 -3.77,-1.99 -4.28,-2.03 -8.65,-4.98 -2.35,-1.58 -4.81,-3.07 -7.82,-4.74 -5.29,-2.93 -12.05,-5.27 -16.16,-8.09l-2.6 -1.22 -2.41 -0.55 -1.7 0.01 -2.38 -1.75 -1.04 0.43c-18.74,-3.88 -27.04,-7.32 -47.63,-6.39 -19.35,0.87 -28.79,3.38 -46.4,7.57z"/>
    <path class="fil2" d="M1862.19 543.15c5.23,-3.29 8.27,-4.55 12.36,-10.94 3.37,-5.27 6.47,-9.36 6.84,-15.68l1.9 -3.19 -0.56 -0.2 -0.24 -2.08c-0.89,3.28 -0.16,2.3 -2.32,3.38 -0.12,-0.37 -0.22,-0.86 -0.26,-1.14 -0.04,-0.26 -0.18,-0.77 -0.21,-1.09l0.49 -4.8c1.79,-5.9 2.19,0.69 -1.05,-7.31l-3.17 -10.94c5.91,1.84 1.54,1.63 5.34,2.93 0,0 3.22,0.05 4.87,1.85l-0.38 -3.53c-6.62,1.29 -5.64,-4.94 -4.31,-8.81l1.28 -1.99c-0.03,-11.42 -16.92,-25.61 -22.82,-30.81 -4.5,-3.97 -25.78,-19.46 -33.4,-20.23l-2.24 -1.68 -0.14 0.42c-2.44,-0.1 -1.68,0.51 -2.37,-1.74l0.09 0.29c-2.59,0.32 -1.83,0.87 -2.27,-1.71l-0.05 0.27c-2.44,0.54 -1.73,0.98 -1.93,-1.6l-0.52 0.25c-2.66,0.58 -2.03,1.16 -2.14,-1.47l-0.44 0.26c-2.55,0.5 -1.87,1.03 -2.06,-1.54l-0.32 0.16c-2.44,0.39 -1.82,0.94 -2.02,-1.43l-1.05 -0.24c2.08,3.99 3.48,3.84 8.34,6.18 3.83,1.84 5.99,2.98 9.94,4.38l-2.86 3.37c-3.32,-2.09 -3.19,-1.89 -7.22,-2.69l0.36 4.21c3.1,1.04 1.68,-6.54 4.22,4.46 1.34,5.8 0.74,5.78 4.32,8.64 -9.39,1.76 -1.48,0.19 -11.19,0.21 1.25,6.98 2.69,3.14 -6.13,8.81l-4.65 2.42c-2.62,-0.85 -1.19,-0.62 -2.26,-1.05l-3.7 -1.13c-2.31,2.85 -0.47,2.58 -3.2,6.53l2.28 4.99 -3.66 3.16c6.84,-0.61 3.86,-0.48 4.74,-1.17 0.91,2.16 0.29,1.33 1.55,2.46 -3.47,1.75 -6.29,-2.39 -2.58,3.78 -9.82,0.96 -5.26,7.53 -11.61,13.43l-4.14 4.15c-7.38,-6.73 -6.54,-6.02 -12.78,-6.19 1.73,5.7 4.48,7.14 4.85,13.98l-4.9 -1.08 -2.7 3.5c-1.5,1.74 -1.67,0.7 -2.32,4.13l5.23 2.46c2.79,1.87 3.27,1.27 1.54,2.28 -3.28,-1.06 -3.79,0.17 -6.22,2.64l2.54 -6.49c-6.09,2.58 -4.19,1.73 -4.84,0.32 -0.2,-0.43 -0.71,-0.35 -1.06,-0.53l3.03 4.32 -5.21 0.03c-0.19,0.54 -0.99,6.18 -1.16,8.95 4.14,-1.34 2.41,-2.41 5.07,-3.7 3.51,2.96 3.97,3.46 2.47,6.83 -5.7,-2.37 5.2,2.56 -2.1,-1.25 -1.46,-0.75 1.3,0 -3.34,-1.44 0.83,6.06 0.81,2.9 -0.88,9.65 7.71,1.42 0.24,1.97 8.13,2.67 2.69,-5.68 -1.46,-5.63 2.35,-13.91 1.89,0.87 2.42,1.08 3.63,4.58 0.57,1.64 -0.45,1.81 2.83,5.19 -1.69,2.24 -0.12,1.13 -2.99,2.01l1.61 1.54c3.75,4.02 1.48,-1.5 1.07,1.31 -0.19,1.34 -27.69,-2.37 -34.01,-2.2 -8.13,0.22 -30.48,0.22 -36.22,-3.87 -3.32,-1.28 -2.11,-0.78 -4.1,-2.77 0.59,2.04 0.61,2.75 1.15,4.72 -7.34,1.23 -8.54,2.97 -10.15,9.07l-6.92 -1.4c2.89,-3.25 0.21,-0.82 2.2,-4.47 -1.86,0.94 -0.75,0.46 -1.87,1.35 -0.2,0.17 -0.51,2.79 -1.2,1.05 -0.08,-0.2 -0.39,0.38 -0.6,0.54 -3.44,-0.9 -7.02,-4.06 -12.37,-5.8 -0.14,-0.27 -0.32,-0.66 -0.43,-0.81 -0.1,-0.15 -0.33,-0.59 -0.47,-0.76 -0.15,-0.17 -0.42,-0.48 -0.59,-0.67l-2.08 -1.75c-0.16,-0.16 -0.49,-0.51 -0.63,-0.64 -0.13,-0.13 -0.46,-0.31 -0.55,-0.7 -0.09,-0.41 -0.35,-0.51 -0.53,-0.75 -2.39,-1.65 -5.24,-5.49 -5.53,-5.59l-0.09 0.55c2.38,0 2.08,-0.68 1.61,1.45l2.7 4.93 1.23 1.34 1.29 1.08c5.21,1.45 1.21,-0.39 3.19,2.73l0.88 -0.41c0.47,3.14 -3.39,0.7 2.17,2.84 2.09,-0.51 1.57,-0.82 1.13,1.35l3.06 0.4c2.95,-0.65 2.23,-1.26 2.23,1.74l0.33 -0.44c2.82,0.41 1.23,-0.47 1.18,2.15l1.76 -0.08c2.51,-0.8 2.13,-1.38 1.63,1.16 15.62,6.13 34.15,10.13 51.41,13.77 0.28,-0.21 0.75,-0.82 0.93,-0.52 0.18,0.29 0.71,-0.41 0.96,-0.48 1.64,-0.48 0.38,-0.53 3.29,-0.74 6.13,-0.45 18.81,3.98 26.76,3.08 5.25,-0.58 2.36,0.92 8.42,2.03 -1.54,-1.2 -1.79,-0.74 -2.09,-2.71 -0.24,-1.51 -0.4,-2.39 2.26,-2.85 9.25,-1.58 -2.71,4.13 8.63,-0.08 7.07,-2.63 17.3,-1.27 25.08,-1.54 13.65,-0.46 22.78,-3.13 34.7,-6.85 3.64,-1.13 0.18,-0.29 2.62,-0.91 0.24,-0.06 0.59,-0.16 0.82,-0.21l1.65 -0.17c2.56,-0.24 0.69,1.56 5.29,-0.68 -0.87,3.39 -0.85,1.97 0.05,3.31l6.52 -2.39zm-0.24 0.36l-1.14 1.35 1.14 -1.35zm-3.86 2.57c-1.78,-0.44 -1.31,-0.69 -0.95,1.17l0.95 -1.17zm-3.1 2.49l0.9 -0.98c-3.57,-2.54 -0.12,-0.8 -3.95,-1.62l3.05 2.6zm-94.57 8.71l3.33 1.25c-1.35,-1.55 2.94,-1.08 -3.33,-1.25zm-9 -1.14l5.15 1.06c-0.26,-0.16 -0.6,-0.76 -0.75,-0.5 -0.16,0.28 -0.65,-0.35 -0.85,-0.39 -2.64,-0.45 -1.11,-0.29 -3.55,-0.17zm20.64 -36.85c0.68,-4.53 -2.25,-2.52 3.02,-3.24 -0.84,3.14 0.2,2.33 -3.02,3.24z"/>
    <path class="fil3" d="M1883.16 732.03l-2.73 -1.96c5.58,-2.27 3.37,0.45 4.62,-5.44 2.47,0.64 1.92,1.18 1.92,-1.28l-1.92 1.28c-3.77,-1.57 -6.92,-0.95 -11.18,1.35 5.84,-3.97 2.97,0.55 2.46,-7.53l1.51 2.35c0.21,0.26 1.07,1.14 1.31,1.39l1.62 1.48c1.9,-2.83 0.58,-4.32 -1.28,-5.79 4.98,3.37 1.29,1.74 4.52,-0.03l-1.44 -6.63c-1.08,-2.38 -0.49,-1.21 -1.8,-2.88l-1.41 1.62c-1.1,2.2 -1.8,-0.46 0.13,7.92 -0.32,-0.15 -0.77,-0.74 -0.93,-0.47 -2.02,3.47 -0.41,-5.44 -14.15,-2.14l2.47 -2.01c0.01,0 -2.74,1.48 1.3,-0.08 2.91,-1.13 0.63,1.4 0.98,-2.08l-0.94 -4.45c-1.98,-2.66 -0.12,-0.38 -2.51,-2.15l-0.73 2.11c-0.05,0.21 -0.21,0.73 -0.26,0.96l-0.26 3.29c-2.17,-2.33 -3.39,-2.56 -6.18,-3.01 1.66,-10.64 -1.49,-5.02 -1.97,-11.96 2.52,-1.48 1.47,-1.21 5.64,-0.98 4.23,6.6 -3.69,-2.27 0.89,2.09 2.36,2.26 -0.91,-0.69 2.11,0.77 -5.12,5.44 2.37,8.25 5.79,7.62 4.03,-0.74 0.47,1.09 1.86,-1.07 4.13,-6.4 1.9,0.62 -0.83,-1.71 -1.64,-1.39 -3.78,-2.23 -5.38,-3.26 0.31,-0.33 2.11,1.81 0.56,-7.7 -1.66,-10.28 9.46,2.65 0.8,-8.28l2.55 0.01c0.07,0.19 -1.03,0.66 -0.2,4.93 6.11,3.96 2.75,-0.5 11.1,6.49 5.45,4.56 -2.11,-1.84 1.48,3.71 1.92,2.98 4.73,2.25 9.26,2.96l-6.21 -9.68c-5.64,-3.2 0.97,1.73 -2.71,-0.29 1.28,-0.99 2.78,-2.8 3.79,-3.94l-3.18 3.56c5.65,0.38 6.79,0.72 11.07,4.51l1.04 1c0.1,0.11 0.32,0.39 0.42,0.48 2.65,2.67 3.56,1.91 6.55,1.34 0.01,1.98 -0.11,2.67 0.08,3.26 0.08,0.26 0.41,0.97 0.57,1.17 2.4,3.27 -1.94,0.24 1.73,1.19l2.43 -1.07c-1.9,-1.57 -1.33,-1.63 -2.03,-2.39 -2.02,-2.16 -0.66,-1.19 -2.78,-2.16 -0.61,-2.01 0.79,-1.33 -0.74,-3.24 -4,1.23 -2.08,1.36 -5.63,0.98 0.61,-2.88 1.05,-3.9 1.74,-5.54 0.12,-0.28 0.39,-0.74 0.5,-0.96l0.86 -1.69c-3.23,-1.48 -3.98,-1.27 -6.12,-5.06 -4.44,-8.74 -26.83,-12.38 -38.87,-12.4 -13.32,-0.02 -41.1,-2.9 -51.09,-1.59l-5.38 0.08c4.95,2.25 6.92,0.41 8.84,2.28 4.18,4.08 -4.48,-3.61 -1.81,4.43l-1.51 -3.11c-0.06,-0.47 -0.34,-0.61 -0.53,-0.9 -3.2,-0.25 -9.1,0.19 -11.75,-1.13 -3.3,-1.65 1.69,2.38 -2.17,-2.31 2.54,0.48 8.8,2.6 9.03,-0.88l-8.05 -0.43c-8.49,1.74 3.69,0.44 -5.27,2.34l0.54 -2.85c0.03,-0.47 0.24,-0.63 0.41,-0.92 -3.41,1.03 -2.81,1.94 -2.81,-1.28l-3.8 -1.68c-0.09,0.16 -0.15,0.46 -0.14,0.54l2.29 4.78c-4.25,-1.09 -6.25,-2.35 -9.57,-4.44 -0.37,-2.76 -0.04,-1.99 -0.3,-6.12 -0.72,3.31 -0.1,1.76 -1.37,3.18 -3.58,3.98 -0.61,0.8 -1.83,0.53 -1.29,-3.02 -3.33,0.12 0.25,-5.09 9.39,-0.23 6.39,9.64 9.07,5.95l-2.68 -2.96c-0.59,-3.01 1.83,-0.62 -1.81,-3.45 -2.85,-1.61 -1.07,-0.58 -3.2,-2.36l-6.39 -4.32c2.95,2.07 1.69,2.72 6.43,4.99 -3.5,4.57 2.41,-0.57 -2.06,1.03 -5.42,1.94 1.17,-2.06 -1.22,0.16 -0.27,0.25 0.44,-1.4 -0.62,1.57 -0.06,0.16 -0.25,1.24 -0.29,1.03 -0.05,-0.25 -0.14,0.79 -0.33,1.14 -4.39,-7.43 0.17,-1.1 -5.47,-5.46 -5.69,-4.39 -4.15,-5.78 -14.82,-6.38 -5.99,-0.34 -8.62,3.28 -9.32,3.8 -0.22,0.17 -0.49,0.44 -0.73,0.6 -0.23,0.16 -0.54,0.39 -0.78,0.53l-2.57 0.87c-0.21,0.06 -0.61,0.06 -0.81,0.1 -0.18,0.04 -0.58,0.03 -0.74,0.06l-2.85 2.41c-0.08,0.14 -0.26,0.48 -0.34,0.62l-1.12 2.02c-0.14,0.27 -0.53,1.08 -0.66,1.34l-0.9 1.78c-0.04,-0.15 -0.18,0.39 -0.3,0.56 -0.21,-0.28 -0.43,-0.7 -0.5,-0.91 -1.49,-5.05 0.8,-3.77 2.78,-7.98 0.38,-0.82 0.58,0.19 0.47,-2.51l0.16 0.2c-1.92,1.75 -1.79,1.53 -2.8,1.36l-11.66 8.93c3.78,0.88 8.35,3.41 10.03,6.11 1.77,2.86 1.04,0.86 0.82,3.95 -4.86,-0.54 4.13,2.55 -1.52,-0.8 -2.59,-1.55 2.11,-1.08 -2.32,-1.04 0.32,1.48 0.36,0.76 0.78,1.9 0.09,0.24 0.52,1.19 0.57,1.45l0.07 1.25c0.19,1.94 -2.17,0.05 2.33,1.68 -0.36,-0.27 -1.18,3.47 -0.7,-1.21 0.17,-1.69 0.62,-2.21 1.26,-3.6 2.53,0.26 1.56,0.16 2.95,0.71 0.25,0.09 0.61,0.28 0.88,0.4 0.27,0.11 0.59,0.3 0.86,0.43 5.39,2.4 4.39,3.76 9.77,6.78 5.78,3.24 4.08,0.54 4.93,0.11 0.08,0.19 0.12,0.33 0.15,0.58 0.41,4.64 13.04,8.42 16.4,9.77 4.19,1.67 3.35,0.61 3.5,4.57 7.86,-5.03 11.39,1.03 17.3,2.07 0.25,0.04 0.61,0.12 0.87,0.16 0.28,0.05 0.64,0.17 0.93,0.21l2.04 0.36c2.63,0.08 3.2,-0.4 4.82,-1.04 -1.4,3.59 2.51,1.61 -3.55,2.35l1.05 1.28c0.41,0.71 0.49,0.68 0.95,2.03 -3.98,-2.31 -5.74,2.3 -8.41,5.13 -2.66,-0.44 -3.41,-3.85 -8.06,1.15 4.17,1.26 2.33,0.39 6.34,2.48 -1.79,1.21 -0.31,0.56 -1.66,0.54l-1.69 -0.13c1.86,4.07 -0.04,2.44 3.32,5.33 -1.97,1.22 -1.74,0.99 -2.59,3.17l-4.72 -4.04c3.19,-0.94 1.04,2.85 2.97,-1.95l-9.43 2.51c1.49,3.13 0.73,1.88 2.71,1.98 -3.91,6.16 -0.19,3.22 -2.09,8.28 -2.45,-2.2 -3.24,-3.56 -5.18,-5.57 -0.11,0.24 -0.26,0.39 -0.28,0.74l-0.59 2.98c-3.69,-6.1 0.76,0.85 -2.31,-1.93 -0.38,-0.34 -1,-1.03 -1.5,-1.76l-1.59 -2.76c-2.59,1.4 -1.7,0.5 -2.82,-1.11 -2.21,2.08 0.72,-0.04 -1.79,1.15 -6.09,2.89 3.45,-2.62 -1.56,0.59l-0.41 -2.67c0.93,-1.73 -0.18,-0.14 1.28,-2.63l1.18 -5.25c-0.21,-0.18 -0.42,0.31 -0.5,0.69 -0.43,1.92 -3.67,3.41 -5.36,4.46 0.62,0.37 1.52,0.37 1.7,1.52l-0.42 1.99c-0.05,0.17 -0.2,0.56 -0.26,0.73 -1.31,3.56 -1.49,1.7 -3.8,5.87 -0.98,-2.98 1.81,-6.97 2.8,-9.81 -6.26,-2.01 -1.77,-1.65 -6.37,0.04 1.58,-1.78 1.32,-1.31 2.59,-1.94l2.13 -0.93c0.14,-0.07 0.48,-0.3 0.7,-0.49 -6.63,-0.68 -1.02,-3.43 -10.72,-4.02l3.92 3.54c-4.5,-1.3 -1.5,-1.6 -3.95,-1.69 -1.49,-0.06 -1.14,0.6 -1.55,1.43l0.09 -3.95 -4.2 -0.74c-1.03,4.25 -1.13,5.13 1.86,7.2 -4.73,2.31 4.26,-3.58 -1.56,0.84l-2.97 -2.12c-0.13,0.2 -0.45,0.31 -0.56,0.72 -0.11,0.38 -0.54,0.57 -0.69,0.64l-3.24 0.55c-0.34,-0.05 -1.92,-0.65 -2.33,-0.76l1.59 1.81c1.04,1.47 0.2,-0.21 1.89,2.96l-6.75 -1.84 3.21 -3.76c-0.18,-0.29 -0.44,-1.08 -0.53,-0.87l-2.79 -4.04c2.63,0.94 1.2,0.53 3.08,1.83 3.65,2.54 -0.06,0.49 3.49,2.22 -2.24,-2.52 -3.63,-5.04 -6.78,-6.67l3.96 -5.58c0.19,-0.2 0.59,-0.5 0.88,-0.75 -4.64,0.29 -3.46,-0.24 -6.08,2.43l0.23 -6.06c2.63,1.63 3.26,1.44 5.68,2.28 -0.19,-0.29 -0.47,-1.07 -0.56,-0.86l-3.18 -4.61c-0.3,0.28 -0.74,0.28 -0.88,0.87 -0.13,0.56 -0.65,0.62 -0.82,0.85 -0.18,0.24 -0.95,1.44 -1.17,1.76 -2.19,3.18 1.08,0.07 -2.83,3.56 -2.15,-1.7 -1.46,2.48 -1.68,-1.99 -0.13,-2.72 1.65,0.23 -1.93,-7.95l-4.07 -0.21c1.38,-1.29 2.87,-1.7 4.38,-5.13 -1.09,0.19 -3.89,0.74 -3.95,0.73 -0.21,-0.04 -0.53,-0.13 -0.74,-0.2 -0.27,-0.08 -0.55,-0.29 -0.81,-0.42l-3.34 -2.09 -1.88 3.05c-0.38,-7.21 -0.08,-1.49 -2.12,-3.27 -2.21,2.6 0.01,1.25 -4.68,1.84 1.34,4.57 2.78,7.76 3,11.39l1.36 4.1c0.09,0.33 0.14,0.67 0.24,1.02l2.16 7.24 0.47 0.4c0.89,6.03 2.37,6.17 3.01,11.9l1.27 0.83 0.45 1.25c1.04,1.68 1.8,2.87 3.35,4.34l0.74 -0.3 3.4 0.81c9.27,4.59 1.72,5.18 10.22,12.58l7.61 7.54c4.03,3.48 11.32,4.57 17.81,6.63 6.92,-0.96 12.2,1.39 17.24,0.89l2.08 1c-0.48,-2.3 0.17,-1.88 -2.08,-1l1.01 -4.61c-0.33,-2 -0.84,-0.73 -0.05,-2.73l3.99 6.85c2.64,-3.44 1.1,-4.74 6.12,-7.1l3.05 -1.55c-3.89,-0.86 -1.11,0.06 -3.7,-1.44 -1.23,-0.72 -1.45,-1.12 -2.24,-1.9 0.31,-5.7 0.47,-3.74 2.47,-8.11l5.6 -0.14c0.07,0.92 0.32,2.03 0.82,3.38 2.95,7.91 0.42,1.93 0.85,7.51 0.23,2.95 -0.42,1.1 0.84,3.32 7.04,-5.58 -3.3,5.8 2.43,-2.34 0.11,-0.15 1.64,-2.98 1.83,-3.94 1.24,-6.27 0.71,-4.55 -1.76,-7.04 3.1,2.52 1.86,0.55 4.14,-0.76 -0.59,-4.44 1.73,-2.91 -2.16,-4.87 5.74,1.73 13.29,5.34 20.61,6.3 0,0 -0.16,3.07 3.2,4.82 2.73,-2.43 1.43,-0.75 3.55,-4.12 3.78,-6.02 -0.93,-3 3.71,-4.92 1.33,-1.37 -0.67,0.07 2.01,1.15l9.95 0.58c0.65,0 2.68,-0.27 3.1,-0.38 -2.3,-4.89 1.72,-3.66 -4.98,-2.27 7.25,-2.78 1.52,-4.54 -0.42,-5.58 9.02,0.88 4.02,1.04 5.71,-3.45 -1.26,-0.76 -1.01,-0.34 -2.15,-0.98 -3.5,-2 -0.18,0.25 -4.55,-4.94l3.49 -0.92c1.3,-0.99 3.77,-4.3 9.22,-5.19 -0.98,-0.11 -0.2,-0.76 -3.25,0.89l-4.14 3.14c1.04,2.9 -0.17,1.58 1.12,4.41l3.1 4.15c0.23,0.25 0.6,0.61 0.93,0.89 9.54,-9.08 21.23,7.61 24.38,6.91l4.36 0.73 -2.64 -7.12c-0.32,-1.9 -1.19,1.03 -0.01,-3.01 -4.05,0.69 -2.71,-1.38 -4.83,2.27 1.39,-5.38 -0.09,-2.8 1.33,-8.6 -4.74,1.79 -2.25,1.3 -5.41,2.64 8.49,-7.6 -3.48,-2.53 4.67,-7.69 0,0.1 -1.31,-0.4 0.42,1.82l1.6 1.17c6.75,6.03 10.35,13.12 11.33,10.1 0.07,-0.19 -0.21,-1.38 -0.24,-1.53 2.64,3.47 -1,2.42 6.34,2.45 -0.07,0.04 -1.11,-0.99 -2.73,4.57 -0.07,-4.72 0.21,-1.91 -3.55,-3.42l1.01 5.02c-4.81,-2.48 -4.54,-0.03 -5.8,3.36 3.81,3.55 15.12,2.54 20.36,2.59zm-197.26 -53.7l0.38 2.4c5.09,-0.66 1.9,0.89 5.19,-1.53 -1.29,-3.46 0.47,-3.52 -5.57,-0.87zm-1.23 3.01c2.33,-0.47 2.59,0.33 0.14,-0.92l-0.14 0.92zm19.62 -14.57l-6.73 0.47 -1.89 -0.27c0.77,1.82 0.83,1.14 -1.36,1.17 0.14,1.79 0.56,1.37 -1.2,1.33 0.07,1.95 0.47,1.33 -1.71,1.33l-4.19 5.61c4.36,0.29 5.72,-3.36 6.73,-6.49 2.13,3.12 0.64,1.17 0.43,2.31 -0.11,0.56 -0.86,1.13 -1.04,1.37l-2.03 2.83c3.26,1.17 0.93,0.02 3.76,1.54 1.84,-3.83 -0.35,-4.08 5.54,-1.52 -1.24,-4.17 -0.17,-2.38 -3.1,-5.26l1.16 -0.75c0.05,0.04 4.82,-0.41 5.63,-3.67zm198.97 24.91l-2.43 -2.21c-1.53,1.2 -2.13,-2.95 -0.07,0.63 0.07,0.12 0.37,0.77 0.5,0.9 3.54,3.37 -0.84,2.26 2,0.68zm2.58 3.42c-0.59,2.42 -1.37,2.45 0.87,1.46 -1.35,2.9 -1.33,1.89 1.92,1.3 -0.39,1.98 -0.66,1.35 1.56,1.21l0.15 1.27 -0.15 -1.27c-0.36,-2.12 0.28,-1.92 -1.56,-1.21 0.36,-2.72 0.83,-2.07 -1.92,-1.3 1.05,-2.29 1.59,-1.99 -0.87,-1.46 -0.63,-2.3 0.85,-1.11 -1,-1.84 -0.12,0.13 -0.37,0.18 -0.39,0.41 -0.02,0.23 -0.32,0.38 -0.35,0.43l1.74 1zm6.33 7.52c-0.69,2.94 -1.63,2.94 1.06,1.81 -0.73,2.22 -1.2,2.02 0.96,1.05 0.59,1.72 -1.52,3.33 1.91,-0.1l-1.91 0.1c1,-2.29 1.37,-1.99 -0.96,-1.05l0.69 -2.1 -1.75 0.29 0.21 -1.41c-0.28,0.18 -0.88,0.12 -0.85,0.53 0.44,4.78 -1.79,-0.45 0.64,0.88zm4.92 5.64c0.5,1.6 -1.87,1.76 1.55,1.06 -0.65,-2.2 0.06,-2.34 -1.55,-1.06l-0.05 -1.83c-3.34,3.48 -1.66,1.32 0.05,1.83zm3.57 4.84c0.11,1.59 -1.9,0.7 1.1,2.4 2.89,1.63 -1.48,1.63 2.09,-0.1 -2.23,-4.86 -0.14,-1.89 -3.19,-2.3l0.25 -2.77c-1.33,-0.25 -0.69,0.8 -2.32,-0.8l0.73 2.24c0.1,0.14 0.5,0.62 0.61,0.76 0.1,0.13 0.52,0.35 0.73,0.57zm4.26 5.23l-0.31 -2.74c-4.11,5.18 -1.97,1.86 0.31,2.74zm-37.36 5.49l-2.19 8.19c0.96,-0.91 2.29,-1.01 2.52,-1.19 -1.74,4.27 0.64,3.47 3.76,5.46 -1.94,0.2 -5.38,4.39 0.89,1.62l1.48 -0.93c-0.23,9.46 2.1,4.17 -0.43,12.84l2.21 -1.4c0.23,-0.19 0.7,-0.45 0.96,-0.69 3.42,-3.16 2.33,2.99 2.19,-4.3l2.27 4.98c0.23,-0.2 0.6,-0.79 0.71,-0.57l11.72 -10.14c-1.6,-11.48 -5.44,-3.89 -8.82,-13.76 -3.27,-9.53 -5.58,-7.37 -17.78,-7.3 -1.07,4.13 0.17,0.46 -4.65,4.63 6.18,3.16 -2.88,2.72 5.16,2.56zm-100.24 -8.26c-2.1,4.31 -0.17,2.02 -3.17,4.46l-1.26 -3.43c3.08,-1.49 1.27,1.23 4.43,-1.03zm28 -17.79l4.36 0.85c0.17,0.06 0.54,0.24 0.82,0.36 -0.2,0.26 -0.48,0.35 -0.56,0.82l-3.53 5.31c1.23,3.65 0.23,2.31 2.83,3.72 -6.06,0.65 0.14,0.94 -5.77,-1.08 1.55,-2.28 1,-1.33 1.74,-3.65l2.2 -3.82c-4.61,-2.3 -1.93,0.06 -2.09,-2.51zm-109.55 1.59c2.96,1.07 3.04,2.19 4.95,4.96l-4.67 -0.01 -0.28 -4.95z"/>
    <path class="fil4" d="M1701.16 526.91l-3.69 -1.17c2.52,-0.35 1.39,0.96 3.33,-0.48 -2.6,-4.42 0.88,-0.89 -3.22,-2.62l-0.11 3.1 -2.67 -2.38c-4.42,0.69 -2.42,2.29 -8.33,2.4 1.11,-2.32 0.42,-0.19 0.98,-3.66 3.89,-0.63 2.24,0.57 7.6,-1.46 -0.56,0.21 -2.39,-0.87 0.29,1.96 2.55,-5.05 3.56,-0.75 6.83,-6.78 -1.49,-2.31 -0.71,-2.97 -6.69,-4.04 -4.38,-0.8 -2.87,2.41 -0.86,4.75 -6.9,-4.01 -2.27,-2.29 -6.91,0.38 3.84,-9.03 -0.32,0.45 -2.1,-8.35 -4.55,1.03 -1.78,-0.67 -4.1,1.15 -1.84,-1.87 -2.72,-0.84 -0.07,-2.31l0.99 -0.57c-5.58,0.44 -2.23,-0.08 -3.58,-1.07l0.94 -4.63c-2.67,0.97 -1.91,0.13 -4.38,0.98l3.32 2.42 -2.49 4.83c-3,-1.84 -1.79,-2.42 -4.38,-3.15l6.85 12.1c-4.43,-1.94 0.01,0.4 -3.18,-2.9 -0.13,-0.14 -0.38,-0.46 -0.51,-0.59 -0.12,-0.11 -0.42,-0.32 -0.53,-0.42l-5.91 -8.29c-2.31,3.99 0.11,5.48 -2.02,11.77 -1.81,5.32 -1.43,1.54 -0.44,8.01 0.18,0.24 0.44,0.34 0.53,0.75 0.09,0.39 0.42,0.57 0.55,0.7 0.14,0.13 0.47,0.48 0.63,0.64l2.08 1.75c0.17,0.19 0.44,0.5 0.59,0.67 0.14,0.17 0.37,0.61 0.47,0.76 0.11,0.15 0.29,0.54 0.43,0.81 5.35,1.74 8.93,4.9 12.37,5.8 0.21,-0.16 0.52,-0.74 0.6,-0.54 0.69,1.74 1,-0.88 1.2,-1.05 1.12,-0.89 0.01,-0.41 1.87,-1.35 -1.99,3.65 0.69,1.22 -2.2,4.47l6.92 1.4c1.61,-6.1 2.81,-7.84 10.15,-9.07 -0.54,-1.97 -0.56,-2.68 -1.15,-4.72zm-20.84 10.95l1.18 2.15c0.05,-2.62 1.64,-1.74 -1.18,-2.15zm-0.33 0.44c0,-3 0.72,-2.39 -2.23,-1.74 0,2.27 -0.46,1.43 2.23,1.74zm-5.29 -2.14c0.44,-2.17 0.96,-1.86 -1.13,-1.35l1.13 1.35zm-7.37 -6.51c1.15,1.51 0.88,1.29 3.19,2.73 -1.98,-3.12 2.02,-1.28 -3.19,-2.73zm-1.29 -1.08l-1.23 -1.34 1.23 1.34zm39.22 1.11c5.74,4.09 28.09,4.09 36.22,3.87 6.32,-0.17 33.82,3.54 34.01,2.2 0.41,-2.81 2.68,2.71 -1.07,-1.31l-1.61 -1.54c2.87,-0.88 1.3,0.23 2.99,-2.01 -3.28,-3.38 -2.26,-3.55 -2.83,-5.19 -1.21,-3.5 -1.74,-3.71 -3.63,-4.58 -3.81,8.28 0.34,8.23 -2.35,13.91 -7.89,-0.7 -0.42,-1.25 -8.13,-2.67 1.69,-6.75 1.71,-3.59 0.88,-9.65 4.64,1.44 1.88,0.69 3.34,1.44 7.3,3.81 -3.6,-1.12 2.1,1.25 1.5,-3.37 1.04,-3.87 -2.47,-6.83 -2.66,1.29 -0.93,2.36 -5.07,3.7 0.17,-2.77 0.97,-8.41 1.16,-8.95l5.21 -0.03 -3.03 -4.32c0.35,0.18 0.86,0.1 1.06,0.53 0.65,1.41 -1.25,2.26 4.84,-0.32l-2.54 6.49c2.43,-2.47 2.94,-3.7 6.22,-2.64 1.73,-1.01 1.25,-0.41 -1.54,-2.28l-5.23 -2.46c0.65,-3.43 0.82,-2.39 2.32,-4.13l2.7 -3.5 4.9 1.08c-0.37,-6.84 -3.12,-8.28 -4.85,-13.98 6.24,0.17 5.4,-0.54 12.78,6.19l4.14 -4.15c6.35,-5.9 1.79,-12.47 11.61,-13.43 -3.71,-6.17 -0.89,-2.03 2.58,-3.78 -1.26,-1.13 -0.64,-0.3 -1.55,-2.46 -0.88,0.69 2.1,0.56 -4.74,1.17l3.66 -3.16 -2.28 -4.99c2.73,-3.95 0.89,-3.68 3.2,-6.53l3.7 1.13c1.07,0.43 -0.36,0.2 2.26,1.05l4.65 -2.42c8.82,-5.67 7.38,-1.83 6.13,-8.81 9.71,-0.02 1.8,1.55 11.19,-0.21 -3.58,-2.86 -2.98,-2.84 -4.32,-8.64 -2.54,-11 -1.12,-3.42 -4.22,-4.46l-0.36 -4.21c4.03,0.8 3.9,0.6 7.22,2.69l2.86 -3.37c-3.95,-1.4 -6.11,-2.54 -9.94,-4.38 -4.86,-2.34 -6.26,-2.19 -8.34,-6.18 -4.61,-3.94 -16.72,-8.39 -22.21,-7.99l-4.25 0.05 3.59 6.69c-23.28,-0.77 1.34,-2.38 -16.62,-3.84 4.75,-3.6 4.26,0.24 9.98,-4.8l-3.43 0.11c-1.11,2.08 1.02,0.23 -2.32,1.1 -1.57,0.4 -0.42,0.1 -2.88,0.04 -12.35,0.04 -21.78,6.89 -33.65,11.57 0.16,0.14 0.46,0.26 0.55,0.32l3.22 4.67c-3.7,2.58 -2.52,0.97 -6.42,0.62 1.46,4.09 0.34,1.47 -2.51,5.62l-1.18 1.47c-0.76,-3.93 0.01,-0.85 -1.11,-3.93 -0.55,-1.52 -0.89,-1.83 -0.91,-1.88 -2.49,4.75 -1.45,3.27 -5.64,4.47 1.35,-2.86 0.18,-0.72 1.46,-2.78 0.15,-0.23 0.33,-0.57 0.49,-0.79l8.96 -5.96 -0.45 -0.54 -2.98 1.76 -4.96 0.45c-0.32,1.84 1.83,1.05 -1.65,1.69l-10.29 3.99c0,2.85 0.64,2.29 -2.14,1.39 2.92,1.83 3.35,0.58 7.1,1.98 -1.29,-3.02 -4.26,-0.49 -0.65,-2.96l1.3 -0.17c3.72,0.79 1.11,0.4 3.09,1.85l-8.89 6.19c-1.07,0.93 -2.36,2.62 -3.52,3.88 -1.15,1.25 -2.49,2.46 -3.69,3.73l1.23 4.19c0.12,0.38 0.49,1.51 0.62,1.89 1.61,4.77 -0.03,3.3 3.04,4.52l1.78 -4.98c1.12,-1.72 0.82,-0.77 1.73,-1.29 2.59,-1.48 1.34,3.14 2.11,-1.82 0.86,-5.56 -1.98,3.37 -0.16,-4.25 3.44,1.71 1.78,-1 3.12,2.17 2.2,5.18 0.66,1.08 -0.64,3.57 -1.14,2.18 -2.69,3.92 -5.19,5.24l4.42 0.53c1.06,-4.72 0.65,-4.11 5.29,-4.68 -0.52,6.26 -3.6,1.73 -2.87,6.61 0.05,0.29 0.66,1.66 0.78,2.06l-1.68 -0.81c-0.16,-0.1 -0.79,-0.77 -0.96,-0.84 -0.05,-0.03 -0.26,-0.22 -0.31,-0.23 -0.04,-0.01 -0.3,0.02 -0.34,0.03 -2.26,0.24 -0.37,2.38 0.27,3.65 0.03,0.04 0.12,0.26 0.18,0.4 4.5,-2.26 5.07,-4.4 6.08,-9.91 2.09,0.94 16.38,7.91 14.36,11.87 -3.34,3.35 -0.16,0.33 -4.06,2.25l-3.62 2.93c-0.15,0.17 -0.38,0.57 -0.61,0.83 -1,-0.99 -1.02,-0.95 -1.93,-2.26 1.72,3.74 6.21,8.14 4.9,12.75 -0.74,2.59 -2.7,2.93 -5.08,3.57 -0.12,-0.19 -0.28,-0.77 -0.32,-0.6l-4.49 -5.92c-0.31,7.18 -1.91,10.22 -10.3,9.94l3.78 2.74c0.82,1.13 2.04,3.31 -0.2,4 -1.74,0.55 -1.25,-0.9 -3.13,-1.7 -2.85,-1.2 -0.16,-0.16 -5.42,0.14 3.08,-5.81 2.35,-0.6 0.06,-6.76l5.9 -2.62c0.05,-0.03 0.28,-0.1 0.34,-0.12l3.41 -0.94c-1.89,-2.75 -3.67,-5.34 -2.58,-8.24 -5.47,2.04 -4.94,4.08 -12.26,3.46l4.64 -3.56 -6.5 -2.71c1.16,-5.73 -2.24,-1.44 3.41,-4.82 -4.79,-2.46 -5.3,-0.1 -6.15,-7.45l4.68 3.64c0.1,0.08 2.89,1.73 3.28,1.96 -0.71,-0.88 -1.19,-1.29 -1.92,-2.12l-3.04 -3.41 2.63 -4.7c-3.94,-0.34 -5.59,0.21 -3.6,-1.86 -3.05,7.16 -9.68,10.71 -15.78,14.73 1.84,0.56 2.06,0.98 0.28,1.92l-0.94 -0.71c-3.23,2.66 -0.94,0.84 -2.15,2.7l2.8 2.63 14.14 -16.28c0.34,-0.14 0.85,-0.26 1.27,-0.41l-0.89 2.3c-1.91,1.91 -0.03,1.42 -3.64,1.78 2.61,1.37 4.32,5.29 4.02,7.51 -0.03,0.25 -0.2,0.68 -0.27,0.91l-1.35 1.67c3.5,-5.88 3.43,-0.04 3.51,0.01 -0.27,0.29 -0.67,0.33 -0.84,0.85l-5.39 5.11c-0.16,0.19 -0.36,0.54 -0.54,0.7l-3.9 1.91c2.43,-0.15 4.7,-0.22 6.66,-1.8 1.51,-1.21 0.23,-0.37 1.53,-1.99l2.91 -3.19c2.29,3.27 1.74,4.35 2.94,8.76 -3.5,-1.3 -2.24,-0.48 -5.12,-2.78 -1.28,3.54 -0.16,2.46 -2.19,2.82 2.52,0.04 5.91,-0.08 4.66,2.64 -0.57,1.24 -0.02,0.25 -1.73,1.97 7.57,-0.43 7.84,3.3 7.43,9.73 -3.78,0.12 -2.04,0.05 -6.31,-0.89 0.23,0.17 0.65,0.13 0.7,0.49 0.05,0.33 0.53,0.41 0.58,0.51 2.64,5.41 -7.65,8.71 -11.68,9.82l5.87 -0.34c3.03,-0.49 5.15,-2.58 0.82,3.19 0.19,0.13 0.56,0.06 0.62,0.34 0.61,2.92 -0.14,0.07 2.42,2.18l3.15 1.38c-2.35,2.68 -0.61,-0.07 -2.15,3.99 -0.82,2.19 -0.96,2.98 -1.8,5.31 0.32,0.27 1.31,1.07 1.53,1.24l5.07 4.51c-1.24,2.39 1.23,0.5 -2.14,1.31zm3.75 -96.08l-2.66 0.94 -1.83 1.69c6.93,-4.29 2.29,-0.16 3.97,1.76 -4.56,2.51 0.34,1.1 -5.53,1.9 1.75,0.2 1.3,-0.09 2.14,0.65 3.49,-3.37 1.36,-3.6 6.93,-5.27l-3.02 -1.67zm101.13 -14.55c0.2,2.37 -0.42,1.82 2.02,1.43l-2.02 -1.43zm2.34 1.27c0.19,2.57 -0.49,2.04 2.06,1.54l-2.06 -1.54zm2.5 1.28c0.11,2.63 -0.52,2.05 2.14,1.47l-2.14 -1.47zm2.66 1.22c0.2,2.58 -0.51,2.14 1.93,1.6 0,-1.99 0.42,-1.25 -1.93,-1.6zm1.98 1.33c0.44,2.58 -0.32,2.03 2.27,1.71 0,-2.22 0.44,-1.37 -2.27,-1.71zm2.18 1.42c0.69,2.25 -0.07,1.64 2.37,1.74 0,-2.3 0.45,-1.41 -2.37,-1.74zm2.51 1.32l2.24 1.68c0,-2.21 0.45,-1.36 -2.24,-1.68zm-139.42 114.2c0.5,-2.54 0.88,-1.96 -1.63,-1.16l1.63 1.16zm-14.65 -25.19c0.05,0.02 5.49,-0.49 0.59,7.43l-0.59 -7.43z"/>
    <path class="fil5" d="M1793.41 774.64c-6.94,-0.01 -17.96,-0.11 -23.79,2.13 -3.79,0.71 -1.23,-1.39 -2.83,1.31l8.21 6.53c7.08,4.11 3.61,0.14 10.03,2.25l-0.57 0.16c3.06,-3.1 5.19,1.37 -1.7,-2.8 1.54,0.13 3.01,0.19 4.42,0.62 4.57,1.39 -1.13,1.64 10.78,1.32 2.96,-0.07 6.92,-0.54 9.28,-0.52 3.95,0.04 3.02,3.73 2.23,-0.73l13.57 -0.19c-1.73,2.06 -0.05,2.31 -3.32,3.4 7.5,0 26.95,-3.57 34.42,-5.3 5.06,-1.18 9.65,-3.56 14.01,-6.08 9.42,-5.46 5.11,-2.42 15.13,-2.53l3.76 -2.97 11.07 5.49c6.06,-1.82 11.4,-3.46 16.58,-7.26 1.76,-1.28 4.14,-3.99 6.41,-6.3 2.67,-2.72 4.16,-3.28 6.33,-5.84 3.78,-5.81 5.61,-9.98 6.21,-16.49l-0.31 -4.33 0.52 -3.84c-1.81,-2.49 -4.25,-6.8 -5.93,-9.58 -0.15,0.16 -0.43,0.41 -0.49,0.45l-0.56 -2.23 0.07 -0.44 -1.5 -1.82c-1.41,4.68 2.97,-0.37 -0.84,3.96 -3.73,-6.28 -6.84,-8.83 -11.63,-12.26 -0.56,-0.4 -2.1,-1.77 -2.7,-2.26l-5.18 -4.42c-3.67,-0.95 0.67,2.08 -1.73,-1.19 -0.16,-0.2 -0.49,-0.91 -0.57,-1.17 -0.19,-0.59 -0.07,-1.28 -0.08,-3.26 -2.99,0.57 -3.9,1.33 -6.55,-1.34 -0.1,-0.09 -0.32,-0.37 -0.42,-0.48l-1.04 -1c-4.28,-3.79 -5.42,-4.13 -11.07,-4.51l3.18 -3.56c-1.01,1.14 -2.51,2.95 -3.79,3.94 3.68,2.02 -2.93,-2.91 2.71,0.29l6.21 9.68c-4.53,-0.71 -7.34,0.02 -9.26,-2.96 -3.59,-5.55 3.97,0.85 -1.48,-3.71 -8.35,-6.99 -4.99,-2.53 -11.1,-6.49 -0.83,-4.27 0.27,-4.74 0.2,-4.93l-2.55 -0.01c8.66,10.93 -2.46,-2 -0.8,8.28 1.55,9.51 -0.25,7.37 -0.56,7.7 1.6,1.03 3.74,1.87 5.38,3.26 2.73,2.33 4.96,-4.69 0.83,1.71 -1.39,2.16 2.17,0.33 -1.86,1.07 -3.42,0.63 -10.91,-2.18 -5.79,-7.62 -3.02,-1.46 0.25,1.49 -2.11,-0.77 -4.58,-4.36 3.34,4.51 -0.89,-2.09 -4.17,-0.23 -3.12,-0.5 -5.64,0.98 0.48,6.94 3.63,1.32 1.97,11.96 2.79,0.45 4.01,0.68 6.18,3.01l0.26 -3.29c0.05,-0.23 0.21,-0.75 0.26,-0.96l0.73 -2.11c2.39,1.77 0.53,-0.51 2.51,2.15l0.94 4.45c-0.35,3.48 1.93,0.95 -0.98,2.08 -4.04,1.56 -1.29,0.08 -1.3,0.08l-2.47 2.01c13.74,-3.3 12.13,5.61 14.15,2.14 0.16,-0.27 0.61,0.32 0.93,0.47 -1.93,-8.38 -1.23,-5.72 -0.13,-7.92l1.41 -1.62c1.31,1.67 0.72,0.5 1.8,2.88l1.44 6.63c-3.23,1.77 0.46,3.4 -4.52,0.03 1.86,1.47 3.18,2.96 1.28,5.79l-1.62 -1.48c-0.24,-0.25 -1.1,-1.13 -1.31,-1.39l-1.51 -2.35c0.51,8.08 3.38,3.56 -2.46,7.53 4.26,-2.3 7.41,-2.92 11.18,-1.35l1.92 -1.28 0.59 0.47c-8.04,0.16 1.02,0.6 -5.16,-2.56 4.82,-4.17 3.58,-0.5 4.65,-4.63 12.2,-0.07 14.51,-2.23 17.78,7.3 3.38,9.87 7.22,2.28 8.82,13.76l-11.72 10.14c-0.11,-0.22 -0.48,0.37 -0.71,0.57l-2.27 -4.98c0.14,7.29 1.23,1.14 -2.19,4.3 -0.26,0.24 -0.73,0.5 -0.96,0.69l-2.21 1.4c2.53,-8.67 0.2,-3.38 0.43,-12.84l-1.48 0.93c-6.27,2.77 -2.83,-1.42 -0.89,-1.62 -3.12,-1.99 -5.5,-1.19 -3.76,-5.46 -0.23,0.18 -1.56,0.28 -2.52,1.19l-2.21 0.02c-5.24,-0.05 -16.55,0.96 -20.36,-2.59 1.26,-3.39 0.99,-5.84 5.8,-3.36l-1.01 -5.02c3.76,1.51 3.48,-1.3 3.55,3.42 1.62,-5.56 2.66,-4.53 2.73,-4.57 -7.34,-0.03 -3.7,1.02 -6.34,-2.45 0.03,0.15 0.31,1.34 0.24,1.53 -0.98,3.02 -4.58,-4.07 -11.33,-10.1l-1.6 -1.17c-1.73,-2.22 -0.42,-1.72 -0.42,-1.82 -8.15,5.16 3.82,0.09 -4.67,7.69 3.16,-1.34 0.67,-0.85 5.41,-2.64 -1.42,5.8 0.06,3.22 -1.33,8.6 2.12,-3.65 0.78,-1.58 4.83,-2.27 -1.18,4.04 -0.31,1.11 0.01,3.01l2.64 7.12 -4.36 -0.73c-3.15,0.7 -14.84,-15.99 -24.38,-6.91 -0.33,-0.28 -0.7,-0.64 -0.93,-0.89l-3.1 -4.15c-1.29,-2.83 -0.08,-1.51 -1.12,-4.41l4.14 -3.14c3.05,-1.65 2.27,-1 3.25,-0.89 -5.45,0.89 -7.92,4.2 -9.22,5.19l-3.49 0.92c4.37,5.19 1.05,2.94 4.55,4.94 1.14,0.64 0.89,0.22 2.15,0.98 -1.69,4.49 3.31,4.33 -5.71,3.45 1.94,1.04 7.67,2.8 0.42,5.58 6.7,-1.39 2.68,-2.62 4.98,2.27 -0.42,0.11 -2.45,0.38 -3.1,0.38l-9.95 -0.58c-2.68,-1.08 -0.68,-2.52 -2.01,-1.15 -4.64,1.92 0.07,-1.1 -3.71,4.92 -2.12,3.37 -0.82,1.69 -3.55,4.12 -3.36,-1.75 -3.2,-4.82 -3.2,-4.82 -7.32,-0.96 -14.87,-4.57 -20.61,-6.3 3.89,1.96 1.57,0.43 2.16,4.87 -2.28,1.31 -1.04,3.28 -4.14,0.76 2.47,2.49 3,0.77 1.76,7.04 -0.19,0.96 -1.72,3.79 -1.83,3.94 -5.73,8.14 4.61,-3.24 -2.43,2.34 -1.26,-2.22 -0.61,-0.37 -0.84,-3.32 -0.43,-5.58 2.1,0.4 -0.85,-7.51 -0.5,-1.35 -0.75,-2.46 -0.82,-3.38l-5.6 0.14c-2,4.37 -2.16,2.41 -2.47,8.11 0.79,0.78 1.01,1.18 2.24,1.9 2.59,1.5 -0.19,0.58 3.7,1.44l-3.05 1.55c-5.02,2.36 -3.48,3.66 -6.12,7.1l-3.99 -6.85c-0.79,2 -0.28,0.73 0.05,2.73l-1.01 4.61c2.25,-0.88 1.6,-1.3 2.08,1 7.2,4.64 17.67,9.07 25.86,9.72l1.52 -0.85c0.12,0.18 0.39,0.58 0.49,0.74 0.06,0.1 0.16,0.45 0.21,0.53l-0.11 0.45c19.57,4.36 15.67,1.75 20.12,2.51 8.95,1.52 2.38,-0.79 5.84,3.45 -3.74,2.96 -16.9,4.67 -21.72,5.43zm-2.02 -41.07c1.89,3.83 0.91,3.57 0.13,6.54 -0.92,0.19 -5.43,2.91 -6.37,-2.24l0.36 -1.95c1.78,-8.51 -0.66,0.07 0.14,-6.53 2.23,0.81 4.61,1.88 5.74,4.18zm-3.98 5.38c-0.71,1.36 0.46,-0.87 0,0z"/>
    <path class="fil6" d="M1662.11 522.3c0.47,-2.13 0.77,-1.45 -1.61,-1.45 0.38,2.04 -0.26,1.7 1.61,1.45 0.77,2.27 -0.03,0.98 1.07,2.87 1.58,2.71 0.61,0.91 1.63,2.06l-2.7 -4.93zm33.23 0.3l2.24 0.04c4.1,1.73 0.62,-1.8 3.22,2.62 -1.94,1.44 -0.81,0.13 -3.33,0.48l3.69 1.17c1.99,1.99 0.78,1.49 4.1,2.77 3.37,-0.81 0.9,1.08 2.14,-1.31l-5.07 -4.51c-0.22,-0.17 -1.21,-0.97 -1.53,-1.24 0.84,-2.33 0.98,-3.12 1.8,-5.31 1.54,-4.06 -0.2,-1.31 2.15,-3.99l-3.15 -1.38c-2.56,-2.11 -1.81,0.74 -2.42,-2.18 -0.06,-0.28 -0.43,-0.21 -0.62,-0.34 4.33,-5.77 2.21,-3.68 -0.82,-3.19l-5.87 0.34c4.03,-1.11 14.32,-4.41 11.68,-9.82 -0.05,-0.1 -0.53,-0.18 -0.58,-0.51 -0.05,-0.36 -0.47,-0.32 -0.7,-0.49 4.27,0.94 2.53,1.01 6.31,0.89 0.41,-6.43 0.14,-10.16 -7.43,-9.73 1.71,-1.72 1.16,-0.73 1.73,-1.97 1.25,-2.72 -2.14,-2.6 -4.66,-2.64 2.03,-0.36 0.91,0.72 2.19,-2.82 2.88,2.3 1.62,1.48 5.12,2.78 -1.2,-4.41 -0.65,-5.49 -2.94,-8.76l-2.91 3.19c-1.3,1.62 -0.02,0.78 -1.53,1.99 -1.96,1.58 -4.23,1.65 -6.66,1.8l3.9 -1.91c0.18,-0.16 0.38,-0.51 0.54,-0.7l5.39 -5.11c0.17,-0.52 0.57,-0.56 0.84,-0.85 -0.08,-0.05 -0.01,-5.89 -3.51,-0.01l1.35 -1.67c0.07,-0.23 0.24,-0.66 0.27,-0.91 0.3,-2.22 -1.41,-6.14 -4.02,-7.51 3.61,-0.36 1.73,0.13 3.64,-1.78l0.89 -2.3c-0.42,0.15 -0.93,0.27 -1.27,0.41l-14.14 16.28 -2.8 -2.63c1.21,-1.86 -1.08,-0.04 2.15,-2.7l0.94 0.71c1.78,-0.94 1.56,-1.36 -0.28,-1.92 6.1,-4.02 12.73,-7.57 15.78,-14.73 -1.99,2.07 -0.34,1.52 3.6,1.86l-2.63 4.7 3.04 3.41c0.73,0.83 1.21,1.24 1.92,2.12 -0.39,-0.23 -3.18,-1.88 -3.28,-1.96l-4.68 -3.64c0.85,7.35 1.36,4.99 6.15,7.45 -5.65,3.38 -2.25,-0.91 -3.41,4.82l6.5 2.71 -4.64 3.56c7.32,0.62 6.79,-1.42 12.26,-3.46 -1.09,2.9 0.69,5.49 2.58,8.24l-3.41 0.94c-0.06,0.02 -0.29,0.09 -0.34,0.12l-5.9 2.62c2.29,6.16 3.02,0.95 -0.06,6.76 5.26,-0.3 2.57,-1.34 5.42,-0.14 1.88,0.8 1.39,2.25 3.13,1.7 2.24,-0.69 1.02,-2.87 0.2,-4l-3.78 -2.74c8.39,0.28 9.99,-2.76 10.3,-9.94l4.49 5.92c0.04,-0.17 0.2,0.41 0.32,0.6 2.38,-0.64 4.34,-0.98 5.08,-3.57 1.31,-4.61 -3.18,-9.01 -4.9,-12.75 0.91,1.31 0.93,1.27 1.93,2.26 0.23,-0.26 0.46,-0.66 0.61,-0.83l3.62 -2.93c3.9,-1.92 0.72,1.1 4.06,-2.25 2.02,-3.96 -12.27,-10.93 -14.36,-11.87 -1.01,5.51 -1.58,7.65 -6.08,9.91 -0.06,-0.14 -0.15,-0.36 -0.18,-0.4 -0.64,-1.27 -2.53,-3.41 -0.27,-3.65 0.04,-0.01 0.3,-0.04 0.34,-0.03 0.05,0.01 0.26,0.2 0.31,0.23 0.17,0.07 0.8,0.74 0.96,0.84l1.68 0.81c-0.12,-0.4 -0.73,-1.77 -0.78,-2.06 -0.73,-4.88 2.35,-0.35 2.87,-6.61 -4.64,0.57 -4.23,-0.04 -5.29,4.68l-4.42 -0.53c2.5,-1.32 4.05,-3.06 5.19,-5.24 1.3,-2.49 2.84,1.61 0.64,-3.57 -1.34,-3.17 0.32,-0.46 -3.12,-2.17 -1.82,7.62 1.02,-1.31 0.16,4.25 -0.77,4.96 0.48,0.34 -2.11,1.82 -0.91,0.52 -0.61,-0.43 -1.73,1.29l-1.78 4.98c-3.07,-1.22 -1.43,0.25 -3.04,-4.52 -0.13,-0.38 -0.5,-1.51 -0.62,-1.89l-1.23 -4.19c1.2,-1.27 2.54,-2.48 3.69,-3.73 1.16,-1.26 2.45,-2.95 3.52,-3.88l8.89 -6.19c-1.98,-1.45 0.63,-1.06 -3.09,-1.85l-1.3 0.17c-3.61,2.47 -0.64,-0.06 0.65,2.96 -3.75,-1.4 -4.18,-0.15 -7.1,-1.98 2.78,0.9 2.14,1.46 2.14,-1.39l-2.14 1.39c-4.08,-0.46 -1.86,-0.79 -2.73,1.29l3.02 1.67c-5.57,1.67 -3.44,1.9 -6.93,5.27 -0.84,-0.74 -0.39,-0.45 -2.14,-0.65 5.87,-0.8 0.97,0.61 5.53,-1.9 -1.68,-1.92 2.96,-6.05 -3.97,-1.76l1.83 -1.69c-2.44,0.31 -2.05,-0.44 -1.83,1.69 -4.96,1.11 -16.48,9.91 -20.87,13.03 -6.98,4.93 -11.1,11.03 -16.23,18.91 -6.56,10.1 -19.52,42.67 -6.83,52.13 0.29,0.1 3.14,3.94 5.53,5.59 -0.99,-6.47 -1.37,-2.69 0.44,-8.01 2.13,-6.29 -0.29,-7.78 2.02,-11.77l5.91 8.29c0.11,0.1 0.41,0.31 0.53,0.42 0.13,0.13 0.38,0.45 0.51,0.59 3.19,3.3 -1.25,0.96 3.18,2.9l-6.85 -12.1c2.59,0.73 1.38,1.31 4.38,3.15l2.49 -4.83 -3.32 -2.42c2.47,-0.85 1.71,-0.01 4.38,-0.98l-0.94 4.63c1.35,0.99 -2,1.51 3.58,1.07l-0.99 0.57c-2.65,1.47 -1.77,0.44 0.07,2.31 2.32,-1.82 -0.45,-0.12 4.1,-1.15 1.78,8.8 5.94,-0.68 2.1,8.35 4.64,-2.67 0.01,-4.39 6.91,-0.38 -2.01,-2.34 -3.52,-5.55 0.86,-4.75 5.98,1.07 5.2,1.73 6.69,4.04 -3.27,6.03 -4.28,1.73 -6.83,6.78zm5.25 -28.46c-0.59,4.19 -1.38,2.41 -1.77,2.9 -0.29,-0.08 -0.66,-0.28 -0.82,-0.36l-2.36 -1.19c-1.86,-0.72 -0.16,-0.52 -2.47,-0.38 0.26,-2.37 0.51,-2.85 -0.4,-5.45l7.48 4.8c-0.17,-0.27 -0.42,-0.65 -0.51,-0.81 -4.07,-7.37 -7.2,-5.21 -6.11,-10.66 6.46,2.41 7.14,9.9 6.96,11.15zm-34.17 -0.9c-1.3,-5.56 0.81,-3.2 0.65,-8.8 4.59,2.19 -0.31,1.36 6.82,2.04l-2.21 1.51c-1.76,1.4 -0.42,0.23 -1.36,1.49 4.22,-0.97 1.27,-1.34 3.02,3.6l-6.92 0.16z"/>
    <path class="fil7" d="M1913.92 702.33c0.16,-2.03 0.56,-1.52 -1.54,-1.12l-0.21 1.41 1.75 -0.29 -0.69 2.1c2.33,-0.94 1.96,-1.24 0.96,1.05l1.91 -0.1 0.94 1.05 0.05 1.83c1.61,-1.28 0.9,-1.14 1.55,1.06l2.27 1.01 -0.25 2.77c3.05,0.41 0.96,-2.56 3.19,2.3l0.76 0.19 0.31 2.74c1.78,0.79 -0.16,-2.99 2.02,2.54 2.14,-2.36 2.01,-0.37 1.51,-5.05 3.84,2.03 1.07,-1.86 4.01,4.41 4.16,8.85 3.17,12.96 8.54,15.62 0,-18.84 -25.57,-35.69 -25.13,-105.81 0.06,-8.7 -0.84,-13.23 -1.23,-20.06 -0.5,-8.91 0.92,-14.48 1.27,-21.38 2.81,-56.41 9.97,-113.98 -15.06,-152.7l-1.07 -1.97 -2.07 -2.31 -0.28 -1.48c-2.33,-0.71 -1.65,1.44 -1.89,-2.2l-1.96 -1.97 -0.48 -1.75 0.22 -0.43c-2.29,0 -1.74,0.59 -1.74,-1.66 -2.04,-1.22 -1.05,-0.57 -2.62,-2.38 -1.4,-1.61 -0.34,-0.45 -1.53,-2.32l-4.93 -6.12 -0.93 -1.68 -1.67 -1.22 -5.06 -5.85c1.67,3.91 2.06,2.8 4.86,7.26l0.85 1.22 3.98 3.29c1.07,1.34 1.59,2.75 2.33,4.14 2.14,4.02 3.12,4.51 3.86,8.36 2.46,0.4 2.15,0.05 3.84,1.11l-3.47 2.93c4.72,8.71 20.33,36.84 19.24,48.62l2.33 5.78c2.81,13.62 -0.34,39.12 1.52,44.95 3.1,-1.76 0.75,3.42 2.3,-1.06 0.29,-0.82 1.38,-0.36 1.92,-0.78l-2.4 5.45c-1.53,5.89 2.17,11.59 -3.55,13.45 -0.27,0.09 -1.1,0.15 -2.01,0.39l-3.44 1.68c-0.21,0.15 -0.74,1.03 -0.9,0.76 -0.16,-0.29 -0.61,0.57 -0.93,0.85 1.56,-5.3 2.54,-6.66 1.23,-12.01 -4.06,6.14 -5.03,74.07 -4.94,86.05 0.11,16.1 5.06,69.76 14.59,77.54 -1.63,1.07 0.17,1.21 -2.13,-0.21zm19.72 38.51c-0.6,6.51 -2.43,10.68 -6.21,16.49 -1.56,3.45 -1.83,2.9 -5.2,4.34 2.87,1.94 0.07,0.45 1.91,0.52 3.78,0.14 1.91,1.38 9.01,-8.11 1.86,-2.51 1.7,-2.81 4.08,-5.58 0.17,-0.12 0.52,-0.48 0.52,-0.35l-0.51 -3.95 1.7 -8.09c-3.22,0.14 -1.01,-2.99 -2.36,3.04 0.16,-8.96 -0.47,-2.47 -1.82,-3.73l-1.12 5.42zm0.21 -8.17l-0.52 3.84c3.66,-4.83 2.24,-0.24 2.24,-7.24 -0.71,1.04 -0.97,1.01 -1.72,3.4z"/>
    <path class="fil3" d="M1619.41 764.65l-1.53 -0.8 -3.08 -0.83 -0.8 -1.63c-7.07,-2.7 -12.11,-6.87 -16.33,-12.42 0.21,-5.48 1.33,-8.65 3.39,-12.92 -0.36,-4.51 0.35,-4.74 2.02,-8.83 -0.18,2.34 -0.34,0.1 2.77,0.86l3.59 -4.7c11.89,-7.66 7.91,-10.9 13.71,-12.5 -2.83,2.01 -2.31,1.72 -2.64,4.02 -0.05,0.3 -0.05,1.18 -0.04,1.47l1.62 4.28c7.67,-4.02 1.8,-5.54 9.1,-11.52 0.04,-0.04 1.71,-1.12 2.3,-1.57 0.2,-0.15 0.52,-0.36 0.72,-0.52 0.19,-0.16 0.51,-0.42 0.68,-0.56l6.16 1.2 -2.14 -4.37c-0.15,-0.31 -0.42,-0.78 -0.61,-1.18 4.94,-2.2 -2.66,3.54 2.16,-1.51 0.28,-0.3 1.81,-2.36 2.14,-2.73 1.37,-1.54 2.98,-2.99 3.59,-3.84l4.08 1.95 0.3 -2.67 -3.14 0.67c-0.95,-3.15 -0.46,-2.66 -2.53,-5.01 0.99,-0.68 2.82,-1.84 3.67,-2.34l2.89 4.37 -0.73 -3.24 -1.1 -3.46c-2.32,3.02 -0.3,0.43 -4.72,1.62 0.05,-0.42 0.17,-3.85 -0.05,-4.49 3.48,-6.83 -1.03,0.48 1.21,-1.4 0.09,-0.07 0.49,-0.32 0.57,-0.37l1.48 -0.73c-0.06,-6.68 0.69,-4.67 -4.51,-8.78 0.94,-3.47 -1.24,1.12 0.47,-0.44l2.03 -1.88c-2.95,-1.32 -1.06,1.14 -3.15,-1.45l1.17 -0.76c0.95,-2.29 0.6,0.32 -0.3,-1.75l-2.69 0.43c-4.53,-0.97 3.13,-2.03 -6.09,-1.66l-3.16 -0.36 -4.55 1.14 -2.16 1.39c-0.9,3.29 -3.96,5.19 -5.81,7.5 -2.71,3.37 -2,3.77 -3.81,7.54l-1.06 1.58 -2.26 1.12 -1.27 3.98c-0.14,0.25 -0.36,0.58 -0.51,0.82 -2.19,3.57 -3.77,4.13 -4,9.15l-13.18 28.66c-4,6.07 -3.32,1.91 -6.17,8.07l0.03 0.71 -1.07 2.67c-1.29,7.6 -0.93,8.79 0.34,15.67 3.15,8.68 4.57,9.47 11.61,14.89l3.44 2.78c2,1.56 4.02,2.86 6.13,4.91 4.95,2.86 4.73,3.11 12.04,4.12 -0.13,-6.97 -0.65,-7.13 -1.15,-10.76 0.23,0.15 0.52,0.16 0.64,0.5l4.18 2.23c0.45,0.21 0.99,0.41 1.48,0.61l-3.97 -4.57 -4.54 1.42c0.38,-5.09 -1.33,-0.84 -0.31,-1.58 0.07,-0.05 0.41,-0.12 0.51,-0.19l2.94 -2.01zm21.96 -43.13l0.74 -5.2c-0.31,-0.36 -0.75,-1.68 -0.86,-1.12 -0.11,0.5 -1.17,0.88 -1.4,1.23l0.51 -3.43c-4.18,4.18 -0.8,2.59 -5.47,3.71 0.19,-2.72 0.23,-3.63 0.96,-5.43l0.95 -1.67c0.1,-0.2 0.38,-0.53 0.45,-0.7 0.34,-0.78 2.76,0.94 0.28,-1.41 -1.6,-1.52 0.73,-1 -2.92,1.34l-1.58 1.09c-0.25,0.15 -0.58,0.33 -0.83,0.47 -1.99,1.05 -0.33,0.22 -2.64,1.08l4.56 1.03c0.15,0.04 0.52,0.2 0.76,0.33 -3.9,1.24 -3.05,1.87 -8.42,6.5l3.12 0.9c-0.14,0.4 -0.51,1.43 -0.65,1.64 -0.07,0.12 -0.29,0.45 -0.38,0.59l2.72 4.17 1.57 -4.35c-0.06,-0.2 -0.32,-0.56 -0.41,-0.75l-1.21 -1.59c3.12,1.13 2.6,1.82 5.26,0.6l-1.68 -2.86 4.73 0.16c-0.17,5.73 -0.41,0.59 1.84,3.67zm2.51 -6.84l0.38 -2.79 -3.37 -2.38 -0.62 0.66c-0.15,0.39 0.89,1.84 1.16,2.16 1.93,2.33 0.28,0.55 2.45,2.35zm-9.76 17.28l3.35 -1.45 1.25 -2.63 1.74 -5.6c-4.51,-4.82 -0.63,-1.35 -3.14,-0.47 -0.04,0.01 -3.23,1.9 -3.69,2.12 2.8,5.1 1.39,3.14 0.49,8.03zm-4.43 -0.31l1.24 0.59c1.07,-2.51 1.01,-0.94 1.03,-3.21 0.02,-2.07 -0.42,-1.83 -0.69,-2.39 -0.54,1.4 -1.2,3.95 -1.58,5.01z"/>
    <path class="fil8" d="M1712.37 660.69l-3.51 0.01c-2.36,0.87 -4.78,1.98 -8.23,2.52 0.32,0.13 0.7,0.33 0.97,0.4 0.29,0.07 0.77,0.26 1.1,0.34l4.61 0.5c-5.32,1.72 -1.04,0.33 -3.02,2.31 -0.81,3.26 -5.58,3.71 -5.63,3.67l-1.16 0.75c2.93,2.88 1.86,1.09 3.1,5.26 -5.89,-2.56 -3.7,-2.31 -5.54,1.52 -2.83,-1.52 -0.5,-0.37 -3.76,-1.54l2.03 -2.83c0.18,-0.24 0.93,-0.81 1.04,-1.37 0.21,-1.14 1.7,0.81 -0.43,-2.31 -1.01,3.13 -2.37,6.78 -6.73,6.49l-1.31 1.92c6.04,-2.65 4.28,-2.59 5.57,0.87 -3.29,2.42 -0.1,0.87 -5.19,1.53l0.51 0.31c4.69,-0.59 2.47,0.76 4.68,-1.84 2.04,1.78 1.74,-3.94 2.12,3.27l1.88 -3.05 3.34 2.09c0.26,0.13 0.54,0.34 0.81,0.42 0.21,0.07 0.53,0.16 0.74,0.2 0.06,0.01 2.86,-0.54 3.95,-0.73 -1.51,3.43 -3,3.84 -4.38,5.13l4.07 0.21c3.58,8.18 1.8,5.23 1.93,7.95 0.22,4.47 -0.47,0.29 1.68,1.99 3.91,-3.49 0.64,-0.38 2.83,-3.56 0.22,-0.32 0.99,-1.52 1.17,-1.76 0.17,-0.23 0.69,-0.29 0.82,-0.85 0.14,-0.59 0.58,-0.59 0.88,-0.87l3.18 4.61c0.09,-0.21 0.37,0.57 0.56,0.86 -2.42,-0.84 -3.05,-0.65 -5.68,-2.28l-0.23 6.06c2.62,-2.67 1.44,-2.14 6.08,-2.43 -0.29,0.25 -0.69,0.55 -0.88,0.75l-3.96 5.58c3.15,1.63 4.54,4.15 6.78,6.67 -3.55,-1.73 0.16,0.32 -3.49,-2.22 -1.88,-1.3 -0.45,-0.89 -3.08,-1.83l2.79 4.04c0.09,-0.21 0.35,0.58 0.53,0.87l-3.21 3.76 6.75 1.84c-1.69,-3.17 -0.85,-1.49 -1.89,-2.96l-1.59 -1.81c0.41,0.11 1.99,0.71 2.33,0.76l3.24 -0.55c0.15,-0.07 0.58,-0.26 0.69,-0.64 0.11,-0.41 0.43,-0.52 0.56,-0.72l2.97 2.12c5.82,-4.42 -3.17,1.47 1.56,-0.84 -2.99,-2.07 -2.89,-2.95 -1.86,-7.2l4.2 0.74 -0.09 3.95c0.41,-0.83 0.06,-1.49 1.55,-1.43 2.45,0.09 -0.55,0.39 3.95,1.69l-3.92 -3.54c9.7,0.59 4.09,3.34 10.72,4.02 -0.22,0.19 -0.56,0.42 -0.7,0.49l-2.13 0.93c-1.27,0.63 -1.01,0.16 -2.59,1.94 4.6,-1.69 0.11,-2.05 6.37,-0.04 -0.99,2.84 -3.78,6.83 -2.8,9.81 2.31,-4.17 2.49,-2.31 3.8,-5.87 0.06,-0.17 0.21,-0.56 0.26,-0.73l0.42 -1.99c-0.18,-1.15 -1.08,-1.15 -1.7,-1.52 1.69,-1.05 4.93,-2.54 5.36,-4.46 0.08,-0.38 0.29,-0.87 0.5,-0.69l-1.18 5.25c-1.46,2.49 -0.35,0.9 -1.28,2.63l0.41 2.67c5.01,-3.21 -4.53,2.3 1.56,-0.59 2.51,-1.19 -0.42,0.93 1.79,-1.15 1.12,1.61 0.23,2.51 2.82,1.11l1.59 2.76c0.5,0.73 1.12,1.42 1.5,1.76 3.07,2.78 -1.38,-4.17 2.31,1.93l0.59 -2.98c0.02,-0.35 0.17,-0.5 0.28,-0.74 1.94,2.01 2.73,3.37 5.18,5.57 1.9,-5.06 -1.82,-2.12 2.09,-8.28 -1.98,-0.1 -1.22,1.15 -2.71,-1.98l9.43 -2.51c-1.93,4.8 0.22,1.01 -2.97,1.95l4.72 4.04c0.85,-2.18 0.62,-1.95 2.59,-3.17 -3.36,-2.89 -1.46,-1.26 -3.32,-5.33l1.69 0.13c1.35,0.02 -0.13,0.67 1.66,-0.54 -4.01,-2.09 -2.17,-1.22 -6.34,-2.48 4.65,-5 5.4,-1.59 8.06,-1.15 2.67,-2.83 4.43,-7.44 8.41,-5.13 -0.46,-1.35 -0.54,-1.32 -0.95,-2.03l-1.05 -1.28c6.06,-0.74 2.15,1.24 3.55,-2.35 -1.62,0.64 -2.19,1.12 -4.82,1.04l-2.04 -0.36c-0.29,-0.04 -0.65,-0.16 -0.93,-0.21 -0.26,-0.04 -0.62,-0.12 -0.87,-0.16 -5.91,-1.04 -9.44,-7.1 -17.3,-2.07 -0.15,-3.96 0.69,-2.9 -3.5,-4.57 -3.36,-1.35 -15.99,-5.13 -16.4,-9.77 -0.03,-0.25 -0.07,-0.39 -0.15,-0.58 -0.85,0.43 0.85,3.13 -4.93,-0.11 -5.38,-3.02 -4.38,-4.38 -9.77,-6.78 -0.27,-0.13 -0.59,-0.32 -0.86,-0.43 -0.27,-0.12 -0.63,-0.31 -0.88,-0.4 -1.39,-0.55 -0.42,-0.45 -2.95,-0.71 -0.64,1.39 -1.09,1.91 -1.26,3.6 -0.48,4.68 0.34,0.94 0.7,1.21 -4.5,-1.63 -2.14,0.26 -2.33,-1.68l-0.07 -1.25c-0.05,-0.26 -0.48,-1.21 -0.57,-1.45 -0.42,-1.14 -0.46,-0.42 -0.78,-1.9 4.43,-0.04 -0.27,-0.51 2.32,1.04 5.65,3.35 -3.34,0.26 1.52,0.8 0.22,-3.09 0.95,-1.09 -0.82,-3.95 -1.68,-2.7 -6.25,-5.23 -10.03,-6.11z"/>
    <path class="fil9" d="M1625.18 664.83l2.16 -1.39c-1.61,-1.47 -1.1,-0.27 2.36,-0.89 5.6,-16.88 2.1,-80.16 0.8,-100.7 -2,-31.89 -3,-66.95 5.75,-97.09l-3.92 4.51c1.27,-5.65 1.83,-3.98 1.78,-8.14l-3.74 10.24c-3.12,-4.13 -0.53,-11.1 2.75,-18.83 1.37,-3.22 2.11,-4.57 3.68,-8.59l5.83 -11.71c2.38,-5.15 2.36,-2.87 4.95,-7.72 7.46,-13.95 9.54,-6.83 12.65,-15.35l-1 -0.03c-0.07,0 -0.42,-0.02 -0.49,-0.02l-1.91 -0.36c4.81,-3.4 3.13,-1.27 3.61,-4.71l1.1 -4.61 -3.53 0.44c0,1.89 0.49,1.45 -1.33,1.45l0.49 3.91c-1.5,-3.93 0.19,0.39 -2.27,-1.81 -1.99,4.09 -2.17,3.48 -5.35,6.69 -13.53,13.7 -24.76,38.68 -29.78,56.76l2.7 -2.71c2.41,5.55 2.4,1.82 4.07,5.85 -2.78,-1.34 -1.77,-0.67 -4.3,-3.32 -0.42,2.97 0.11,2.09 -1.16,3.95 2.6,1.5 1.42,0.42 3.19,1.04 6.16,2.17 -4.75,-5.77 1.77,0.75 0.32,-0.27 1.28,-0.97 1.47,-1.04 5.19,-1.86 -2.63,-0.67 2.1,0.51 1.65,4.78 -0.64,5.31 -2.04,9.95 -3.13,10.38 -4.26,35.84 -5.22,40.05 -0.61,2.68 -0.58,2.1 -1.42,3.03l-0.07 -12.09c-0.86,1.64 -0.31,-0.33 -0.9,3.1 -0.83,4.77 0.13,-2.5 -0.26,2.33 -0.1,1.16 -0.07,4.86 -0.08,6.28 4.09,2.47 2.54,-1.16 2.53,5.31 -0.19,-0.27 -0.45,-0.67 -0.57,-0.83l-2.36 -2.71c-2.17,13.65 0.88,32.3 1.49,44.7l-3.37 1.26c5.26,3.08 1.63,0.84 1.12,4.87 -0.64,5.12 4.29,10.7 2.15,18.22 -1.56,5.45 -0.11,-0.29 -1.38,0.75 0.28,2.94 0.21,0.72 0.86,2.53l0.79 2.1c0.69,2.45 -0.34,2.43 -0.37,5.26l1.06 21.55c-0.1,3.02 -0.05,3.11 0.15,5.57 0.67,7.8 -0.68,5.96 -0.86,12.11 -0.11,3.67 1.24,7.52 1.28,7.88l-0.13 3.13c0.73,3.59 2.14,1.15 2.56,5.97l0.61 2.6z"/>
    <path class="fil6" d="M1693.16 781.2c2.74,-0.26 6.9,-0.41 8.5,-0.49 0.69,-0.03 1.57,-0.18 3.29,-0.2 3.3,-0.05 1,-0.55 2.79,0.2l3.02 2.45 -0.08 -0.8c0.35,-2.74 -0.46,-2.15 2.13,-2.15l6.48 -0.48 7.65 -1.18 2.71 -5.02c2.73,-2.35 3.81,-0.95 5.44,3.77l3.01 -0.3c-1.03,-5 0.54,-3.62 1.86,-7.08 -2.46,-1.98 -0.76,-0.92 -2.52,-0.93 -4.22,-0.01 3.99,1.19 -1.84,0.8l1.47 -2.42c0.11,-0.14 0.4,-0.48 0.5,-0.61l1.1 -1.23c-0.18,-0.2 -0.5,-0.77 -0.58,-0.58l-3.23 -5.98c0.14,-0.01 3.52,3.17 4.75,6.48 0.03,0.06 -1.28,4.22 8.72,1.64l-3.72 -3.2c-2.7,-3.85 0.1,-0.92 -0.51,-3.41l-1.17 -1.31c-4.19,-1.12 2.54,3.54 -3.68,0.06 2.5,-1.71 2.57,2.04 2.63,-5.04l0 -3.42c-6.49,-2.06 -13.78,-3.15 -17.81,-6.63l-7.61 -7.54c-8.5,-7.4 -0.95,-7.99 -10.22,-12.58 -1.81,5 1.34,0.21 1.54,9.26 2.66,2.16 1.03,-3.48 -0.99,1.48 -0.77,1.9 -0.74,3.24 -1.1,5.09 -0.25,-0.29 -0.54,-0.69 -0.64,-0.94l-0.75 -2.86c0,-0.01 0.55,-2.52 0.31,-4.4 -1.66,-1.13 -0.77,-0.7 -2.97,-1.26 -4.87,-1.22 -3.18,1.1 -2.2,8.34l-4.84 -7.21 4.98 -3.69c4.33,1.3 2.3,1 3.91,0.06 -3.51,-1.48 -1.8,3.06 -3.57,-3.77 0.19,-0.11 0.52,-0.25 0.61,-0.28 0.08,-0.03 0.48,-0.23 0.57,-0.26l1.74 -0.37 -0.74 0.3c-3.72,-2.13 -1.87,0.02 -3.35,-4.34l-0.45 -1.25 -1.27 -0.83 -2.64 5.17c-1.55,-2.93 -2.68,-2.43 -0.93,-5.36l-4.15 0.59c-5.1,1.13 0.24,1.52 -5,8 2.2,-0.14 1.78,-0.75 1.78,1.22 3.22,3.28 4.54,4.05 7.37,0.34 -2.59,7.32 0.45,4.32 0.03,9.35 -0.62,7.27 2.06,-3.09 -4.33,5.29l-0.42 3.91c2.81,2.87 0.85,0.57 0.6,0.23 0.25,9.25 1.01,0.59 -2.35,6.28 -2.26,3.79 -0.21,0.33 -0.98,1.75 -0.15,0.28 -0.62,1.23 -0.78,1.51l-1 1.75c9.54,-3.64 5.23,-4.06 5.14,-4.25 0.15,0.09 0.3,0.19 0.35,0.4l1.5 1.17c2.63,1.16 1.11,1.13 4.95,0.86 -3.04,-5.78 0.69,-1.48 -4.22,-4.31l8.59 -4.49c0.39,-0.09 1.58,-0.07 3.6,0.29l-0.64 2.08c-3.36,7.53 -0.43,1.68 -3.15,3.7 -0.06,0.05 -0.34,0.21 -0.39,0.26 -0.06,0.04 -0.28,0.26 -0.33,0.31l-3 3.78c5.1,-0.02 4.56,0.86 4.99,1.08 -6.25,0.77 -3.03,-0.3 -3.81,3.82 -5.24,-9.17 -5.13,-1.8 -6.04,-0.21 -0.83,1.44 -4.09,3.94 -5.47,2.86 -3.62,-2.84 0.33,-0.93 0.37,-1.01l0.98 -6.14c-0.13,0.14 -0.52,0.55 -0.66,0.71l-2.11 2.28c-1.53,1.75 2.15,2.53 -4.05,0.87 -0.05,-0.01 -0.28,-0.17 -0.32,-0.17 -0.15,0.02 3.03,-3.97 -0.66,0.28 -1.38,1.58 -0.71,-0.49 -1.77,3.82 4.41,0.5 1.92,0.52 5.09,1.24 0.25,0.05 0.64,0.12 0.87,0.17 5.12,1.21 -0.81,-2.94 2.21,0.7 3.86,4.66 -3.56,-1.57 1.28,6.68 5.38,-1.56 4.04,0.37 5.56,-4.06 1,2.03 0.81,1.2 1.34,3.51 -1.69,-1.25 4.52,-1.25 -1.88,-0.08 -0.12,0.02 -0.51,0.13 -0.65,0.16 -6.26,1.37 -1.48,0.64 -8.67,-0.1 1.37,7.78 1.62,4.18 0.33,5.93 4.58,2.73 -2.21,4.98 3.05,0.41 0.56,-0.5 -1.19,-1.4 0.88,-1.71 1.57,-0.24 -1.55,-0.45 5.67,3.24zm-5.1 0l-2.31 0.11c1.35,1.23 -0.05,2.35 2.31,-0.11l4.06 0.2c-1.95,-0.98 1.16,-1 -2.18,-0.75 -0.22,0.02 -0.77,0.12 -0.97,0.14 -0.22,0.03 -0.61,0.26 -0.91,0.41z"/>
    <path class="fil8" d="M1636.25 464.76c1.56,-9.13 8.14,-21.3 12.54,-27.92l6.49 -8.53c14.66,-18.71 33.97,-39.35 60.19,-47.74l-5.12 -4.52 5.3 -1.24 1.13 4.84 2.1 -0.4 -1.24 -5.38c0.13,-0.03 18.63,-4.19 24.09,-5.27 13.92,-2.73 21.92,0.74 29.06,-6.3l-25.06 1.64 -3.66 0.12c-9.25,2.45 -27.46,5.6 -38.23,5.86 -21.72,7.93 -31.74,20.5 -45.83,29.96l-1.33 1.45 -1.78 2.1c2.46,2.2 0.77,-2.12 2.27,1.81l-0.49 -3.91c1.82,0 1.33,0.44 1.33,-1.45l3.53 -0.44 -1.1 4.61c-0.48,3.44 1.2,1.31 -3.61,4.71l1.91 0.36c0.07,0 0.42,0.02 0.49,0.02l1 0.03c-3.11,8.52 -5.19,1.4 -12.65,15.35 -2.59,4.85 -2.57,2.57 -4.95,7.72l-5.83 11.71c-1.57,4.02 -2.31,5.37 -3.68,8.59 -3.28,7.73 -5.87,14.7 -2.75,18.83l3.74 -10.24c0.05,4.16 -0.51,2.49 -1.78,8.14l3.92 -4.51zm-10.21 7.68c-1.47,13.38 -4.1,25.7 -5.18,40.41l0.07 12.09c0.84,-0.93 0.81,-0.35 1.42,-3.03 0.96,-4.21 2.09,-29.67 5.22,-40.05 1.4,-4.64 3.69,-5.17 2.04,-9.95 -4.73,-1.18 3.09,-2.37 -2.1,-0.51 -0.19,0.07 -1.15,0.77 -1.47,1.04zm-6.82 53.89l2.36 2.71c0.12,0.16 0.38,0.56 0.57,0.83 0.01,-6.47 1.56,-2.84 -2.53,-5.31l-0.4 1.77z"/>
    <path class="fil7" d="M1662.89 781.76l4.7 -0.09c0.73,-4.75 0.14,-4.08 2.78,-6.71 -5.19,4.74 -2.88,2.4 -4.9,-0.65 1.26,-3.75 -0.83,-1.91 3.14,-2.96l-0.08 -0.59c-0.34,-0.24 -1.23,-1.02 -1.39,-1.17l3.41 -4.07c-4.38,1.57 -6.01,3.36 -8.45,6.29l2.03 0.86c0.06,0.11 0.13,0.62 0.16,0.73l0.04 1.91c-2.53,0.56 -3.11,-0.7 -3.32,-0.77 -8.28,-2.57 6.74,-0.05 -1.65,-0.63 -5.02,-0.34 1.11,0.34 -2.99,1.47 -1.01,-6.42 -0.6,-2.36 1.61,-4.73l1.79 -1.92c10.59,-9.54 7.05,-1.64 9.26,-9.46 2.86,1.4 3.63,2.01 5.36,3.04 1.44,0.86 1.69,0.97 1.97,1.28 -1.44,-2.77 -0.97,0.59 -2.98,-3.51 -1.79,-3.64 0.57,-3.71 0.77,-4.07 0.09,-0.17 0.36,-0.85 0.47,-1.08l1.45 -2.98c-6.67,-0.56 -4.11,2.82 -6.12,0.01 3.35,-2.64 1.82,-2.79 5.38,-1.27 -0.12,-0.4 -0.72,-1.89 -0.81,-2.23 -1.9,-7.1 -0.93,-2.49 -0.17,-3.77 -4.38,0.37 -2.79,2.14 -5.52,0.6 3.86,-1.22 2.26,-1.29 3.92,-2.07 7.83,-3.69 -0.26,2.09 6.13,-5.12 7.49,-8.45 -0.21,-5.08 7.21,-11.39 0,-1.97 0.42,-1.36 -1.78,-1.22l-1.5 4.34 -1.35 0.81c-1.69,5.03 -0.1,1.72 -2.28,2.31l-0.06 2.25c-2.53,2.1 -1.54,2.3 -4.11,3.93 -2.06,1.31 -3.87,1.58 -5.55,2.23l-1.13 1.32 -0.86 0.3c-4.11,2.51 -3.97,3.05 -8.87,2.64 -1.45,1.31 -0.09,0.52 -1.19,-1.16 -0.36,0.18 -2.38,1.16 -2.45,1.2 -0.18,0.09 -0.7,0.77 -0.84,0.51 -0.12,-0.25 -0.55,0.37 -0.83,0.54 6.97,3.62 4.03,-0.18 5.17,3.64 -1.85,-1.13 -2.4,-0.97 -3.7,-1.66 -2.71,-1.44 -1.69,-0.72 -4.02,-3.32 4,-0.83 5.26,-2.34 9.04,-3.94 2.15,-0.92 6.4,-0.27 6.92,-1.99 0.13,-0.42 0.52,-0.46 0.79,-0.67l-0.07 -0.04c-2.68,-3.77 0.45,0.1 -1.35,-1.42l-1.36 -0.76c5.53,-0.35 1.8,1.25 4.87,-2.76 1.99,0.57 1.3,0.73 1.03,-1.53 2.68,-1.33 0.91,1.38 2.17,-1.85l-0.04 -1.2c-1.29,1.14 -1.28,0.95 -2.13,3.05 -2.02,-0.17 -1.51,-0.55 -1.03,1.53 -5.4,1.85 -8.29,6.53 -16.87,6.57 -7.75,0.04 -11.71,-3.61 -14.03,-10.29l-1.21 0.44 -4.88 11.22c0.17,-0.2 0.67,-1.53 0.67,-1.88 -0.01,-1.68 -0.28,-1.81 -0.66,-2.63 -0.82,3.69 -0.89,3.67 -2.36,7.3 -2.49,13.74 7.18,15.99 0.76,31.97 3.51,5.72 25.11,4.67 30.18,3.78l1.26 -3.42 3.77 2.2 -3.32 2.71z"/>
    <path class="fil7" d="M1619.22 526.33l0.4 -1.77c0.01,-1.42 -0.02,-5.12 0.08,-6.28 0.39,-4.83 -0.57,2.44 0.26,-2.33 0.59,-3.43 0.04,-1.46 0.9,-3.1 1.08,-14.71 3.71,-27.03 5.18,-40.41 -6.52,-6.52 4.39,1.42 -1.77,-0.75 -1.77,-0.62 -0.59,0.46 -3.19,-1.04 1.27,-1.86 0.74,-0.98 1.16,-3.95 2.53,2.65 1.52,1.98 4.3,3.32 -1.67,-4.03 -1.66,-0.3 -4.07,-5.85l-2.7 2.71c-8.04,34.55 -7.51,43.85 -7.53,76.55 0,10.93 1.35,18.05 1.28,27.58 -0.21,33.99 5.36,56.15 1.02,95.38 -0.7,6.35 -1.95,6.53 -0.04,15.06 -2.91,-1.6 -2.26,-2.16 -2.26,1.12l2.26 -1.12 1.06 -1.58c1.81,-3.77 1.1,-4.17 3.81,-7.54 1.85,-2.31 4.91,-4.21 5.81,-7.5l-0.61 -2.6c-0.42,-4.82 -1.83,-2.38 -2.56,-5.97l0.13 -3.13c-0.04,-0.36 -1.39,-4.21 -1.28,-7.88 0.18,-6.15 1.53,-4.31 0.86,-12.11 -0.2,-2.46 -0.25,-2.55 -0.15,-5.57l-1.06 -21.55c0.03,-2.83 1.06,-2.81 0.37,-5.26l-0.79 -2.1c-0.65,-1.81 -0.58,0.41 -0.86,-2.53 1.27,-1.04 -0.18,4.7 1.38,-0.75 2.14,-7.52 -2.79,-13.1 -2.15,-18.22 0.51,-4.03 4.14,-1.79 -1.12,-4.87l3.37 -1.26c-0.61,-12.4 -3.66,-31.05 -1.49,-44.7zm12.67 135.97l-2.19 0.25c-3.46,0.62 -3.97,-0.58 -2.36,0.89l4.55 -1.14z"/>
    <path class="fil5" d="M1685.37 591.55l-0.48 1.4 1.91 3.04 -0.51 0.15 1.69 2.65 -0.45 -0.14c2.75,3.13 0.72,-1.88 2.5,3.91l0.99 1.41 2.96 1.59c2.35,-0.82 1.87,-1.31 1.72,1.12 2.69,-0.73 1.86,-1.1 1.86,1.87 5.06,6.28 31.94,9.82 33.15,-12.4 0.71,-13.22 -11.64,-29.09 -29.39,-26.33 -2.01,2.49 -0.11,2.19 -3.68,1.7l-0.86 -0.58c-0.07,2.28 0.41,1.58 -2.16,1.19l0.43 0.09c-0.9,2.62 0.03,2.12 -2.49,1.94l-1.45 0.55c-2.85,1.9 -1.46,1.07 -2.02,2.57l-0.86 2.11 -1.75 1.68 0.34 0.12c0.28,-0.3 0.89,-2.27 1.97,-3.53l5.58 -3.55c5.86,-2.94 6.37,-4.06 12.77,-1.45 -2.6,1.12 -5.37,1.27 -7.98,2.43 -2.43,1.08 -3.47,3.52 -5.36,1.37 2.08,3.89 -0.18,3.64 -0.72,8.72 -0.69,6.38 -0.2,9.78 2.39,14.28 2.41,4.21 2.74,2.97 10.64,7.22 -3.91,2.01 -4.67,0.64 -8.77,-0.96 -4.05,-1.59 -5.22,-1.51 -7.47,-4.41 -3.99,-5.15 -2.3,-6.87 -2.35,-7.25 -0.41,-3.09 -1.72,0.53 -1.58,-5l-0.57 2.49z"/>
    <path class="fil5" d="M1818.67 582.18c2.52,3.41 3.52,-0.83 6.81,2.69 -2.01,1.16 -5.06,1.88 -6.7,3.06 -4.26,3.07 -0.54,1.73 -4.61,5.58 -3.74,3.54 -2.72,-1.16 -5.11,5.38 -3.28,8.96 1.74,19.01 16.96,13.01 0.8,5.03 1.33,4.97 7.13,5.38 7.97,-1.4 17.61,-14.74 13.09,-26.69 -3.25,-8.57 -16.68,-14.54 -27.57,-8.41zm10.46 36.1l2.59 0.69c-4.71,-3.51 -0.32,-2.7 -8.12,-1.8l2 0.79c0.24,0.05 3.5,0.32 3.53,0.32zm-12.81 -34.83c0.16,0.22 0.48,0.38 0.48,0.67 0,0.18 0.31,0.44 0.31,0.43 -0.01,0 -0.43,-0.51 -0.68,-0.85l-0.11 -0.25zm-3.2 2.74c-2.6,-0.88 -2.39,-1.54 -1.5,1.05l-0.27 -0.14 -1.7 2.19 -1.26 0.81 -0.94 1.6c1.72,0.82 -1.08,1.9 1.64,-0.86 0.18,-0.18 0.82,-0.95 1.02,-1.2 1.35,-1.78 0.63,-0.54 1.51,-2.4 2.68,0.75 2.59,1.51 1.5,-1.05 4.45,-0.83 2.59,-0.07 0.92,-1.06 -2.26,-0.91 -1.85,-1.17 -0.92,1.06zm-7.28 7.31l-0.19 0.12 0.19 -0.12zm-2.21 2.54c0.36,-0.1 1.14,-0.58 1.09,-0.27 -0.02,0.09 0.14,-0.28 0.11,-0.31 -0.07,-0.06 -0.57,-0.22 -0.85,-0.35l-0.35 0.93z"/>
    <path class="fil3" d="M1855.67 398.96c0.99,2.56 11.33,12.25 14.97,17.75 4.74,7.15 9.55,13.34 14.26,20.9 8.96,14.4 15.48,30.3 19.72,48.11 5.15,4.8 2.42,0.39 2.5,5.01l-2.16 -8.78 3.28 -1.59c3.58,-1.55 1.26,2.49 2.09,-0.87 1.09,-11.78 -14.52,-39.91 -19.24,-48.62 -2.43,-2.81 -0.98,3.72 -2.27,-3.67l1.9 -0.37c-4.5,-0.42 -5.34,-1 -7.66,-4.81 -2.47,-4.04 -1.27,-3.57 -4.58,-6.58 1.02,-1.65 1.15,-2.1 2.07,-4.4l-0.85 -1.22c-5.87,-2.6 -1.85,2.31 -5.71,-3.87l-0.91 -1.63c-4.04,-6.63 -6.84,-8.24 -12.21,-12.82l-2.73 -2.63c-5.56,-1.77 -5.12,-3.54 -10.73,-6.02l-14.02 -6.57c-0.11,-0.35 -0.44,-0.37 -0.65,-0.58l-11.41 -3.39 -5.84 0.52c8.27,-2.72 5.2,0.86 9.75,2.36l2.79 0.99c4.81,2.38 10.57,4.32 15.02,6.84l-0.76 2.62c-0.02,-0.12 -0.28,-0.12 -0.43,-0.17 4.13,0.58 2.7,-0.57 3.98,0.78l2.05 1.84c1.44,0.79 7.24,4.74 7.65,3.44 0.07,-0.23 0.49,-0.01 0.72,0.07 -1.34,4.59 4.54,-3.52 -2.59,2.41 -0.05,0.04 -0.32,0.16 -0.37,0.2 -0.12,0.13 -0.85,1.33 -0.04,2.16 4.49,4.61 -2.68,-3.13 1.6,-0.19 0.03,0.03 1.67,-0.79 0.81,2.78zm49.99 94.29c2.53,-4.74 0.41,-0.89 -0.04,-1.87l0.04 1.87z"/>
    <path class="fil8" d="M1607.59 774.88l-0.37 0.05c1.59,1.97 -0.26,0.78 2.68,2.94 2.39,1.77 1.33,1.02 4.85,2.32l9.73 -0.18 1.28 -1.01c0.41,-0.1 2.01,-0.41 2.62,-0.68 3.93,-1.79 0.8,0.2 2.62,-1.83 6.42,-15.98 -3.25,-18.23 -0.76,-31.97 1.33,-5.88 2.92,-8.55 -0.02,-13.53l-1.3 2.35c-0.83,1.68 0.53,-0.12 -0.96,2.01l-2.5 16.42 -0.84 9.9c-0.7,3.28 -1.9,4.88 -0.07,6.72 -4.49,-1.79 -2.26,-0.62 -5.14,-3.74l-1.53 -0.8 1.53 0.8 -2.94 2.01c-0.1,0.07 -0.44,0.14 -0.51,0.19 -1.02,0.74 0.69,-3.51 0.31,1.58l4.54 -1.42 3.97 4.57c-0.49,-0.2 -1.03,-0.4 -1.48,-0.61l-4.18 -2.23c-0.12,-0.34 -0.41,-0.35 -0.64,-0.5 0.5,3.63 1.02,3.79 1.15,10.76 -7.31,-1.01 -7.09,-1.26 -12.04,-4.12zm26.53 -42.92c0.9,-4.89 2.31,-2.93 -0.49,-8.03 0.46,-0.22 3.65,-2.11 3.69,-2.12 2.51,-0.88 -1.37,-4.35 3.14,0.47l0.91 -0.76c-2.25,-3.08 -2.01,2.06 -1.84,-3.67l-4.73 -0.16 1.68 2.86c-2.66,1.22 -2.14,0.53 -5.26,-0.6l1.21 1.59c0.09,0.19 0.35,0.55 0.41,0.75l-1.57 4.35 -2.72 -4.17c0.09,-0.14 0.31,-0.47 0.38,-0.59 0.14,-0.21 0.51,-1.24 0.65,-1.64l-3.12 -0.9c5.37,-4.63 4.52,-5.26 8.42,-6.5 -0.24,-0.13 -0.61,-0.29 -0.76,-0.33l-4.56 -1.03c2.31,-0.86 0.65,-0.03 2.64,-1.08 0.25,-0.14 0.58,-0.32 0.83,-0.47l1.58 -1.09c3.65,-2.34 1.32,-2.86 2.92,-1.34 2.48,2.35 0.06,0.63 -0.28,1.41 -0.07,0.17 -0.35,0.5 -0.45,0.7l-0.95 1.67c-0.73,1.8 -0.77,2.71 -0.96,5.43 4.67,-1.12 1.29,0.47 5.47,-3.71l-0.51 3.43c0.23,-0.35 1.29,-0.73 1.4,-1.23 0.11,-0.56 0.55,0.76 0.86,1.12l1.77 -1.64c-2.17,-1.8 -0.52,-0.02 -2.45,-2.35 -0.27,-0.32 -1.31,-1.77 -1.16,-2.16l0.62 -0.66 3.37 2.38 3.28 -7.54c0.87,-2.79 1.59,-5.43 2.73,-8.35l-4.08 -1.95c-0.61,0.85 -2.22,2.3 -3.59,3.84 -0.33,0.37 -1.86,2.43 -2.14,2.73 -4.82,5.05 2.78,-0.69 -2.16,1.51 0.19,0.4 0.46,0.87 0.61,1.18l2.14 4.37 -6.16 -1.2c-0.17,0.14 -0.49,0.4 -0.68,0.56 -0.2,0.16 -0.52,0.37 -0.72,0.52 -0.59,0.45 -2.26,1.53 -2.3,1.57 -7.3,5.98 -1.43,7.5 -9.1,11.52l-1.62 -4.28c-0.01,-0.29 -0.01,-1.17 0.04,-1.47 0.33,-2.3 -0.19,-2.01 2.64,-4.02 -5.8,1.6 -1.82,4.84 -13.71,12.5 -1.57,5.11 0.34,5.82 0.29,14.72l-3.76 -1.73c-2.8,-0.83 -1.17,-0.65 -3.71,0.6 -0.35,0.17 -0.77,0.63 -1.16,0.95 5.68,-3.45 -0.31,-0.9 0.9,0.34 0.07,0.06 0.3,0.4 0.37,0.48l1.67 1.7c-3.99,2.8 -1.12,4.12 -0.58,4.94 0.25,-0.01 0.68,-0.28 0.75,-0.07l1.2 -0.61c2.72,-3.41 0.41,-1.25 0.68,-1.88l0.81 -1.69c4.42,-7.31 -1.31,3.95 1.38,-1.98 -0.48,4.42 -0.53,1.43 -0.24,2.23l1.69 2.56c1.84,-1.48 3.19,-0.59 5.01,-7.28 0.83,0.77 0.97,1.28 3.56,0.01 -1.66,-4.3 1.41,-2.5 -3.56,-3.76 3.34,-0.22 1.38,-0.6 2.51,-1.26l-0.76 -1.91c-3.49,-6.13 0.23,4.14 -1.36,-2.96 -0.04,-0.18 -0.14,-1.07 -0.39,-1.41l7.53 3.77c-4.31,3.6 2.07,-4.99 -1.24,2.52 -0.18,-0.19 0.95,0.46 -0.8,-1.29l-4.22 -3.27c2.88,4.64 -1.9,2.62 3.76,5.81 2.09,2.22 -3.12,2.18 2.5,1.48l2.79 -1.86c5.78,-3.64 -7.53,2.1 4.63,-0.88 0.38,-1.06 1.04,-3.61 1.58,-5.01 0.27,0.56 0.71,0.32 0.69,2.39 -0.02,2.27 0.04,0.7 -1.03,3.21 6.85,3.82 2.43,0.23 3.19,-0.28zm-28.27 -3.88c-3.11,-0.76 -2.95,1.48 -2.77,-0.86 -1.67,4.09 -2.38,4.32 -2.02,8.83 4.28,-3.59 3.79,-2.17 4.79,-7.97z"/>
    <path class="fil8" d="M1738.1 777l10.96 -0.81c6.14,-0.58 15.47,-3.52 20.56,0.58 5.83,-2.24 16.85,-2.14 23.79,-2.13l0.57 -2.81 -7.62 1.52c1.81,-3.86 0.31,-2.19 3.37,-4.6 -3.43,-0.94 -1.77,0.51 -2.61,-1.98 -0.06,-0.17 -0.09,-0.59 -0.12,-0.78l0.06 -3.61c-8.19,-0.65 -18.66,-5.08 -25.86,-9.72l-2.08 -1c-5.04,0.5 -10.32,-1.85 -17.24,-0.89l0 3.42c-0.06,7.08 -0.13,3.33 -2.63,5.04 6.22,3.48 -0.51,-1.18 3.68,-0.06l1.17 1.31c0.61,2.49 -2.19,-0.44 0.51,3.41l3.72 3.2c-10,2.58 -8.69,-1.58 -8.72,-1.64 -1.23,-3.31 -4.61,-6.49 -4.75,-6.48l3.23 5.98c0.08,-0.19 0.4,0.38 0.58,0.58l-1.1 1.23c-0.1,0.13 -0.39,0.47 -0.5,0.61l-1.47 2.42c5.83,0.39 -2.38,-0.81 1.84,-0.8 1.76,0.01 0.06,-1.05 2.52,0.93 -1.32,3.46 -2.89,2.08 -1.86,7.08z"/>
    <path class="fil9" d="M1818.03 379.38l2.41 0.55 2.6 1.22c0,-3.09 0.59,-2.26 -2.6,-1.22 1.73,-3.39 0.05,-0.7 -0.07,-1.97 -0.26,-2.99 1.78,1.6 0.24,-2.11l-3.77 0.9c1.02,0.57 0.5,1.1 1.19,2.63zm-4.08 -1.74l2.38 1.75c-0.49,-2.17 2.06,-1.58 -2.38,-1.75zm1.54 -4.81l-42.92 -10.01 10.33 -0.21c3.73,2.24 3.33,1.39 8.32,1.35l-2.18 -0.89c-7.07,-1.85 4.65,0.56 -2.33,-0.5 -2.64,-0.4 -2.13,-0.03 -3.81,0.04 -7.04,-1.95 -18.22,-1.32 -25.69,-1.05 -6.91,0.25 -9.41,0.63 -5.9,-1.68 1.44,-0.96 0.91,-0.95 2.74,-1.16 3.53,-0.4 5.01,1.78 5.28,1.28 0.16,-0.3 0.64,0.31 0.98,0.4 0,-0.01 3.75,-2.77 -2.08,-1.8l2.75 -1.48c1.94,2.24 -3.29,-0.47 1.79,1.05 0.21,0.06 0.92,0.19 1.11,0.17 2.86,-0.29 0.49,0.32 1.45,-1.7 9.13,1.19 2,0.5 4.85,-1.43 -1.05,0 -4.88,-0.13 -5.95,0.1 -4.23,0.91 -1.71,-1.17 -3.25,1.81 -9.2,-1.54 -23.66,1.63 -31.55,3.6 -6.71,1.66 -21.33,6.35 -25.59,9.2 10.77,-0.26 28.98,-3.41 38.23,-5.86 -0.34,-0.24 -0.84,-0.52 -1.05,-0.66l5.89 -2.36c0.58,0.12 1.05,0.49 1.46,0.45 -5.33,1.97 -0.39,-0.08 -2.64,2.45l25.06 -1.64c-7.14,7.04 -15.14,3.57 -29.06,6.3 -5.46,1.08 -23.96,5.24 -24.09,5.27l1.24 5.38c17.61,-4.19 27.05,-6.7 46.4,-7.57 20.59,-0.93 28.89,2.51 47.63,6.39 2.2,-2.21 -3.33,-2.35 3.9,-1.54l-1.32 -3.7zm-100.02 7.74l1.31 -0.92 -1.13 -4.84 -5.3 1.24 5.12 4.52z"/>
    <path class="fil3" d="M1710.76 783.16l-3.02 -2.45c-1.9,4.62 -0.18,0.18 -3.32,2.15 -2.3,1.44 -2.48,1.97 -2.04,4.23 3.46,2.19 4.74,2.05 10.26,1.84 4.7,-0.19 5.9,-1.28 9.85,0.01 23.88,-1.55 33.92,0.95 40.4,0.39l12.92 -0.33c1.06,-0.02 3.43,-0.04 4.57,-0.28l3.52 -1.25c0.34,-0.13 0.78,-0.37 1.13,-0.61 -6.42,-2.11 -2.95,1.86 -10.03,-2.25l-8.21 -6.53c1.6,-2.7 -0.96,-0.6 2.83,-1.31 -5.09,-4.1 -14.42,-1.16 -20.56,-0.58l-10.96 0.81 -3.01 0.3 -8.15 1.25 -7.65 1.18c-6.48,1.52 -2.61,0.86 -4.44,2.36l4.15 1.69c3.37,-2.02 3.02,-3.14 7.02,-2.6 -0.38,5.82 -0.7,1.99 -5.8,5.62l-5.17 -3.72c-2.97,-1.25 -2.27,0.48 -4.29,0.08zm73.7 3.86c0.96,0.53 1.13,0.94 3.38,1.36 0.36,0.06 3.47,0.21 3.97,0.24l-5.09 1.19c-2.93,-0.14 -1.8,-0.07 -5.56,-0.79 -0.62,0.63 -1.15,2.65 -1.24,2.86 0.84,0 3.27,0.11 4.08,-0.18 3.89,-1.39 -0.04,1.43 2.72,-1.89 11.37,2.92 23.01,-1.5 33,-1.69 3.27,-1.09 1.59,-1.34 3.32,-3.4l-13.57 0.19c0.79,4.46 1.72,0.77 -2.23,0.73 -2.36,-0.02 -6.32,0.45 -9.28,0.52 -11.91,0.32 -6.21,0.07 -10.78,-1.32 -1.41,-0.43 -2.88,-0.49 -4.42,-0.62 6.89,4.17 4.76,-0.3 1.7,2.8zm-73.78 -4.66c2.73,-0.66 2.27,0.25 2.13,-2.15 -2.59,0 -1.78,-0.59 -2.13,2.15z"/>
    <path class="fil9" d="M1686.09 726.71c-7.42,6.31 0.28,2.94 -7.21,11.39 -6.39,7.21 1.7,1.43 -6.13,5.12 -1.66,0.78 -0.06,0.85 -3.92,2.07 2.73,1.54 1.14,-0.23 5.52,-0.6 -0.76,1.28 -1.73,-3.33 0.17,3.77 0.09,0.34 0.69,1.83 0.81,2.23 -3.56,-1.52 -2.03,-1.37 -5.38,1.27 2.01,2.81 -0.55,-0.57 6.12,-0.01l-1.45 2.98c-0.11,0.23 -0.38,0.91 -0.47,1.08 -0.2,0.36 -2.56,0.43 -0.77,4.07 2.01,4.1 1.54,0.74 2.98,3.51 -0.28,-0.31 -0.53,-0.42 -1.97,-1.28 -1.73,-1.03 -2.5,-1.64 -5.36,-3.04 -2.21,7.82 1.33,-0.08 -9.26,9.46l-1.79 1.92c-2.21,2.37 -2.62,-1.69 -1.61,4.73 4.1,-1.13 -2.03,-1.81 2.99,-1.47 8.39,0.58 -6.63,-1.94 1.65,0.63 0.21,0.07 0.79,1.33 3.32,0.77l-0.04 -1.91c-0.03,-0.11 -0.1,-0.62 -0.16,-0.73l-2.03 -0.86c2.44,-2.93 4.07,-4.72 8.45,-6.29l-3.41 4.07c0.16,0.15 1.05,0.93 1.39,1.17 0.97,-0.48 1.72,-0.21 2.69,-1.36 5.5,6.51 -0.53,-1.38 1,-5.45l2.67 5.56c2.67,-6.99 0.86,-3.49 7.16,-2.07 -0.9,2.04 -1.54,2.31 -1.7,2.57l-2.17 5.55 -9.57 -4.21c-3.97,1.05 -1.88,-0.79 -3.14,2.96 2.02,3.05 -0.29,5.39 4.9,0.65 -2.64,2.63 -2.05,1.96 -2.78,6.71 6.14,-0.12 4.14,-0.36 7.65,-0.21 5.22,0.2 4.52,0.8 10.51,-0.15l2.31 -0.11c0.3,-0.15 0.69,-0.38 0.91,-0.41 0.2,-0.02 0.75,-0.12 0.97,-0.14 3.34,-0.25 0.23,-0.23 2.18,0.75l1.04 -0.2c-7.22,-3.69 -4.1,-3.48 -5.67,-3.24 -2.07,0.31 -0.32,1.21 -0.88,1.71 -5.26,4.57 1.53,2.32 -3.05,-0.41 1.29,-1.75 1.04,1.85 -0.33,-5.93 7.19,0.74 2.41,1.47 8.67,0.1 0.14,-0.03 0.53,-0.14 0.65,-0.16 6.4,-1.17 0.19,-1.17 1.88,0.08 -0.53,-2.31 -0.34,-1.48 -1.34,-3.51 -1.52,4.43 -0.18,2.5 -5.56,4.06 -4.84,-8.25 2.58,-2.02 -1.28,-6.68 -3.02,-3.64 2.91,0.51 -2.21,-0.7 -0.23,-0.05 -0.62,-0.12 -0.87,-0.17 -3.17,-0.72 -0.68,-0.74 -5.09,-1.24 1.06,-4.31 0.39,-2.24 1.77,-3.82 3.69,-4.25 0.51,-0.26 0.66,-0.28 0.04,0 0.27,0.16 0.32,0.17 6.2,1.66 2.52,0.88 4.05,-0.87l2.11 -2.28c0.14,-0.16 0.53,-0.57 0.66,-0.71l-0.98 6.14c-0.04,0.08 -3.99,-1.83 -0.37,1.01 1.38,1.08 4.64,-1.42 5.47,-2.86 0.91,-1.59 0.8,-8.96 6.04,0.21 0.78,-4.12 -2.44,-3.05 3.81,-3.82 -0.43,-0.22 0.11,-1.1 -4.99,-1.08l3 -3.78c0.05,-0.05 0.27,-0.27 0.33,-0.31 0.05,-0.05 0.33,-0.21 0.39,-0.26 2.72,-2.02 -0.21,3.83 3.15,-3.7l0.64 -2.08c-2.02,-0.36 -3.21,-0.38 -3.6,-0.29l-8.59 4.49c4.91,2.83 1.18,-1.47 4.22,4.31 -3.84,0.27 -2.32,0.3 -4.95,-0.86l-1.5 -1.17c-0.05,-0.21 -0.2,-0.31 -0.35,-0.4 0.09,0.19 4.4,0.61 -5.14,4.25l1 -1.75c0.16,-0.28 0.63,-1.23 0.78,-1.51 0.77,-1.42 -1.28,2.04 0.98,-1.75 3.36,-5.69 2.6,2.97 2.35,-6.28 0.25,0.34 2.21,2.64 -0.6,-0.23l0.42 -3.91c6.39,-8.38 3.71,1.98 4.33,-5.29 0.42,-5.03 -2.62,-2.03 -0.03,-9.35 -2.83,3.71 -4.15,2.94 -7.37,-0.34z"/>
    <path class="fil5" d="M1736.3 554.86l15.12 1.28c2.44,-0.12 0.91,-0.28 3.55,0.17 0.2,0.04 0.69,0.67 0.85,0.39 0.15,-0.26 0.49,0.34 0.75,0.5l3.85 0.08c6.27,0.17 1.98,-0.3 3.33,1.25 21.71,3.45 26.31,1.74 47.82,-0.33 15.31,-1.47 29.75,-5.1 43.42,-9.63l-3.05 -2.6c3.83,0.82 0.38,-0.92 3.95,1.62l1.25 -0.34c-0.36,-1.86 -0.83,-1.61 0.95,-1.17 0.82,-0.35 1.36,-0.17 2.72,-1.22l1.14 -1.35 0.24 -0.36 -6.52 2.39c-0.9,-1.34 -0.92,0.08 -0.05,-3.31 -4.6,2.24 -2.73,0.44 -5.29,0.68l-1.65 0.17c-0.23,0.05 -0.58,0.15 -0.82,0.21 -2.44,0.62 1.02,-0.22 -2.62,0.91 -11.92,3.72 -21.05,6.39 -34.7,6.85 -7.78,0.27 -18.01,-1.09 -25.08,1.54 -11.34,4.21 0.62,-1.5 -8.63,0.08 -2.66,0.46 -2.5,1.34 -2.26,2.85 0.3,1.97 0.55,1.51 2.09,2.71 -6.06,-1.11 -3.17,-2.61 -8.42,-2.03 -7.95,0.9 -20.63,-3.53 -26.76,-3.08 -2.91,0.21 -1.65,0.26 -3.29,0.74 -0.25,0.07 -0.78,0.77 -0.96,0.48 -0.18,-0.3 -0.65,0.31 -0.93,0.52z"/>
    <path class="fil6" d="M1662.89 781.76l3.32 -2.71 -3.77 -2.2 -1.26 3.42c-5.07,0.89 -26.67,1.94 -30.18,-3.78 -1.82,2.03 1.31,0.04 -2.62,1.83 -0.61,0.27 -2.21,0.58 -2.62,0.68 3.23,-0.35 1.72,-0.36 3.4,0.72 -0.26,0.19 -0.53,0.53 -0.72,0.64l-5.49 1.62c1.08,-1.83 -0.36,-1.17 1.53,-1.97l-9.73 0.18c3.1,0.76 4.37,1.48 8.2,1.79l4.07 1.15c1.74,1.3 -0.17,1.22 4.29,1.22 -1.12,-1.51 1.75,-1.95 -4.29,-1.22 4.05,-2.5 1.4,-0.07 3.62,-3.28l1.68 4.27 1.7 0.95c6.95,3 -5.06,-1.69 1.81,0.77 1.73,0.62 1.8,0.56 3.98,1.08 18.86,4.49 44.7,8.36 62.97,6.41 5.99,-0.64 13.52,-1.29 18.63,-1.44 7.41,-0.24 11.18,-1.32 18.79,-1.29 14.54,0.06 25.22,1.28 39.72,1.28 0.09,-0.21 0.62,-2.23 1.24,-2.86 3.76,0.72 2.63,0.65 5.56,0.79l5.09 -1.19c-0.5,-0.03 -3.61,-0.18 -3.97,-0.24 -2.25,-0.42 -2.42,-0.83 -3.38,-1.36l0.57 -0.16c-0.35,0.24 -0.79,0.48 -1.13,0.61l-3.52 1.25c-1.14,0.24 -3.51,0.26 -4.57,0.28l-12.92 0.33c-6.48,0.56 -16.52,-1.94 -40.4,-0.39 -3.09,2.47 -21.52,0.77 -26.28,0.76l-8.14 -0.94 -3.8 -0.33 0.21 0.31c-4.87,0.29 -8.95,0.09 -13.78,-0.46 -0.2,-0.02 -6.11,-1 -6.24,-1.01 -2.91,-0.28 -1.27,-0.08 -2.75,0.01l-1.58 0.41c-1.74,-2.42 1.3,-0.44 -1.14,-2.89 -2.34,-2.38 -6.83,-1.34 -11.96,-1.79l15.86 -1.25z"/>
    <path class="fil6" d="M1624.62 761.67l0.84 -9.9 -0.92 7.51c-2.62,-5.58 1.49,-1.95 -3.28,-4.87l3.41 -4.29c-3.52,-2.37 -1.13,0.18 -2.61,-3.85 4.13,-5.38 2.13,-3.59 2.72,-8.41 0.35,0.58 -4.15,0.34 3.16,0.67l0.02 -3.18c1.49,-2.13 0.13,-0.33 0.96,-2.01l1.3 -2.35c2.94,4.98 1.35,7.65 0.02,13.53 1.47,-3.63 1.54,-3.61 2.36,-7.3 0.38,0.82 0.65,0.95 0.66,2.63 0,0.35 -0.5,1.68 -0.67,1.88l4.88 -11.22 1.21 -0.44 0.04 -2.19 -1.25 2.63 -3.35 1.45c-0.76,0.51 3.66,4.1 -3.19,0.28l-1.24 -0.59c-12.16,2.98 1.15,-2.76 -4.63,0.88l-2.79 1.86c-5.62,0.7 -0.41,0.74 -2.5,-1.48 -5.66,-3.19 -0.88,-1.17 -3.76,-5.81l4.22 3.27c1.75,1.75 0.62,1.1 0.8,1.29 3.31,-7.51 -3.07,1.08 1.24,-2.52l-7.53 -3.77c0.25,0.34 0.35,1.23 0.39,1.41 1.59,7.1 -2.13,-3.17 1.36,2.96l0.76 1.91c-1.13,0.66 0.83,1.04 -2.51,1.26 4.97,1.26 1.9,-0.54 3.56,3.76 -2.59,1.27 -2.73,0.76 -3.56,-0.01 -1.82,6.69 -3.17,5.8 -5.01,7.28l-1.69 -2.56c-0.29,-0.8 -0.24,2.19 0.24,-2.23 -2.69,5.93 3.04,-5.33 -1.38,1.98l-0.81 1.69c-0.27,0.63 2.04,-1.53 -0.68,1.88l-1.2 0.61c-0.07,-0.21 -0.5,0.06 -0.75,0.07 -0.54,-0.82 -3.41,-2.14 0.58,-4.94l-1.67 -1.7c-0.07,-0.08 -0.3,-0.42 -0.37,-0.48 -1.21,-1.24 4.78,-3.79 -0.9,-0.34 0.39,-0.32 0.81,-0.78 1.16,-0.95 2.54,-1.25 0.91,-1.43 3.71,-0.6l3.76 1.73c0.05,-8.9 -1.86,-9.61 -0.29,-14.72l-3.59 4.7c-1,5.8 -0.51,4.38 -4.79,7.97 -2.06,4.27 -3.18,7.44 -3.39,12.92 4.22,5.55 9.26,9.72 16.33,12.42l0.8 1.63 -0.8 -1.63 3.43 -1.79c-5.12,2.7 -0.19,4.17 -0.17,4.2 4.89,0.17 4.57,0.28 7.36,-2.13z"/>
    <path class="fil8" d="M1815.49 372.83l5.84 -0.52c-1.63,-1.85 -0.15,-0.92 -3.11,-2.22 -1.8,-0.79 -1.9,-0.55 -4.05,-1 -4.16,-0.87 -4.12,-0.63 -7.59,-2.55l-1.49 0.08c-3.47,-0.33 -5.55,0.49 -6.49,-2.16l-7.38 -0.5c-4.99,0.04 -4.59,0.89 -8.32,-1.35l-10.33 0.21 42.92 10.01 1.32 3.7c-7.23,-0.81 -1.7,-0.67 -3.9,1.54l1.04 -0.43c4.44,0.17 1.89,-0.42 2.38,1.75l1.7 -0.01c-0.69,-1.53 -0.17,-2.06 -1.19,-2.63l3.77 -0.9c1.54,3.71 -0.5,-0.88 -0.24,2.11 0.12,1.27 1.8,-1.42 0.07,1.97 3.19,-1.04 2.6,-1.87 2.6,1.22 4.11,2.82 10.87,5.16 16.16,8.09 3.01,1.67 5.47,3.16 7.82,4.74 4.37,2.95 4.88,2.99 8.65,4.98 0.86,-3.57 -0.78,-2.75 -0.81,-2.78 -4.28,-2.94 2.89,4.8 -1.6,0.19 -0.81,-0.83 -0.08,-2.03 0.04,-2.16 0.05,-0.04 0.32,-0.16 0.37,-0.2 7.13,-5.93 1.25,2.18 2.59,-2.41 -0.23,-0.08 -0.65,-0.3 -0.72,-0.07 -0.41,1.3 -6.21,-2.65 -7.65,-3.44l-2.05 -1.84c-1.28,-1.35 0.15,-0.2 -3.98,-0.78 0.15,0.05 0.41,0.05 0.43,0.17l0.76 -2.62c-4.45,-2.52 -10.21,-4.46 -15.02,-6.84l-2.79 -0.99c-4.55,-1.5 -1.48,-5.08 -9.75,-2.36z"/>
    <path class="fil3" d="M1808.39 590.1l1.26 -0.81 1.7 -2.19c-2.4,0.64 -1.92,-0.16 -1.7,2.19 -1.96,-0.7 -1.71,-1.18 -1.26,0.81 -2.1,-0.11 -1.6,-0.51 -0.94,1.6 -2.08,-0.03 -1.31,-0.47 -1.8,1.92l0.19 -0.12c-2.06,0 -1.39,-0.49 -1.86,1.61 0.28,0.13 0.78,0.29 0.85,0.35 0.03,0.03 -0.13,0.4 -0.11,0.31 0.05,-0.31 -0.73,0.17 -1.09,0.27l-2.18 3.66c-4.16,11.05 3.81,18.81 14.19,20.36 2.82,0.42 4.63,0.53 7.47,0.21 4.23,-0.48 3.68,-0.27 6.02,-1.99 -0.03,0 -3.29,-0.27 -3.53,-0.32l-2 -0.79c7.8,-0.9 3.41,-1.71 8.12,1.8l1.43 -1.69c-5.8,-0.41 -6.33,-0.35 -7.13,-5.38 -15.22,6 -20.24,-4.05 -16.96,-13.01 2.39,-6.54 1.37,-1.84 5.11,-5.38 4.07,-3.85 0.35,-2.51 4.61,-5.58 1.64,-1.18 4.69,-1.9 6.7,-3.06 -3.29,-3.52 -4.29,0.72 -6.81,-2.69l-2.24 1.52c0.25,0.34 0.67,0.85 0.68,0.85 0,0.01 -0.31,-0.25 -0.31,-0.43 0,-0.29 -0.32,-0.45 -0.48,-0.67 -2.72,0.32 -2.28,-0.53 -2.28,1.68 1.67,0.99 3.53,0.23 -0.92,1.06 1.09,2.56 1.18,1.8 -1.5,1.05 -0.88,1.86 -0.16,0.62 -1.51,2.4 -0.2,0.25 -0.84,1.02 -1.02,1.2 -2.72,2.76 0.08,1.68 -1.64,0.86l0.94 -1.6z"/>
    <path class="fil8" d="M1779.1 662.59c-1.13,-1.25 0.53,0.08 -1.84,-1.87l-2.44 -1.76 2.68 2.96c-2.68,3.69 0.32,-6.18 -9.07,-5.95 -3.58,5.21 -1.54,2.07 -0.25,5.09 1.22,0.27 -1.75,3.45 1.83,-0.53 1.27,-1.42 0.65,0.13 1.37,-3.18 0.26,4.13 -0.07,3.36 0.3,6.12 3.32,2.09 5.32,3.35 9.57,4.44l-2.29 -4.78c-0.01,-0.08 0.05,-0.38 0.14,-0.54zm-6.09 -7.08c-8.38,-9.92 -18.25,-15.69 -37.04,-13.15 -0.35,0.28 -0.78,0.58 -1.08,0.79 -0.28,0.19 -0.71,0.49 -1.04,0.71 -0.3,0.21 -0.66,0.41 -0.97,0.62l-2.16 1.54c-1.44,1.28 -2.85,3.02 -4.05,4.18 0.11,2.7 -0.09,1.69 -0.47,2.51 -1.98,4.21 -4.27,2.93 -2.78,7.98 0.07,0.21 0.29,0.63 0.5,0.91 0.12,-0.17 0.26,-0.71 0.3,-0.56l0.9 -1.78c0.13,-0.26 0.52,-1.07 0.66,-1.34l1.12 -2.02c0.08,-0.14 0.26,-0.48 0.34,-0.62l2.85 -2.41c0.16,-0.03 0.56,-0.02 0.74,-0.06 0.2,-0.04 0.6,-0.04 0.81,-0.1l2.57 -0.87c0.24,-0.14 0.55,-0.37 0.78,-0.53 0.24,-0.16 0.51,-0.43 0.73,-0.6 0.7,-0.52 3.33,-4.14 9.32,-3.8 10.67,0.6 9.13,1.99 14.82,6.38 5.64,4.36 1.08,-1.97 5.47,5.46 0.19,-0.35 0.28,-1.39 0.33,-1.14 0.04,0.21 0.23,-0.87 0.29,-1.03 1.06,-2.97 0.35,-1.32 0.62,-1.57 2.39,-2.22 -4.2,1.78 1.22,-0.16 4.47,-1.6 -1.44,3.54 2.06,-1.03 -4.74,-2.27 -3.48,-2.92 -6.43,-4.99l6.39 4.32c2.13,1.78 0.35,0.75 3.2,2.36z"/>
    <path class="fil6" d="M1667.42 738.73l0.07 0.04c3.16,1.86 0.99,-0.02 1.97,2.59 1.68,-0.65 3.49,-0.92 5.55,-2.23 2.57,-1.63 1.58,-1.83 4.11,-3.93 -3.79,-0.49 -0.72,1.3 -3.44,-1.99 2.97,-2.24 -3.68,2.78 3.5,-0.26 0.46,-4.07 -0.76,-6.01 2.28,-2.31l1.35 -0.81 -5.24 -3.31c-0.13,-0.42 -0.59,-0.35 -0.84,-0.57l4.64 -1.14 3.83 -12.71c1.83,-3.16 -0.48,-0.56 1.78,-2.37 2.37,-1.89 -1.43,-3.42 4,-0.66 -0.05,-0.03 -2.7,-0.08 -0.3,-3.27 -0.27,0.04 -0.62,0.26 -0.75,0.32 -0.13,0.05 -0.58,0.26 -0.72,0.32 -0.15,0.05 -0.53,0.25 -0.68,0.29 -0.85,0.26 0.52,2.57 -5.46,-2.69l5.13 -4.54c0.11,-0.45 0.38,-0.55 0.58,-0.81l5.24 6.5 -0.47 -0.4 -3.96 -7.88c-3.76,1.06 -1.3,2.35 -6.83,-0.4l3.33 -6.85c1.49,2.17 0.6,2.74 3.26,5.04l0.44 -2.27c-0.22,-3.63 -1.66,-6.82 -3,-11.39l-0.51 -0.31 -0.38 -2.4 -1.09 2.09c2.45,1.25 2.19,0.45 -0.14,0.92 -3.79,5.42 -3.29,17.42 -4.51,25.6 -1.55,10.43 -3.98,14.36 -7.42,22.27l0.04 1.2c5,-1.94 1.15,-1.08 2.9,1.87 -5.4,4.12 -0.02,6.32 -4.77,4.07 -1.69,2.17 0.87,0.74 -3.49,2.38zm0.05 4.25l0.86 -0.3 -0.86 0.3z"/>
    <path class="fil8" d="M1693.16 781.2l-1.04 0.2 -4.06 -0.2c-2.36,2.46 -0.96,1.34 -2.31,0.11 -5.99,0.95 -5.29,0.35 -10.51,0.15 -3.51,-0.15 -1.51,0.09 -7.65,0.21l-4.7 0.09 -15.86 1.25c5.13,0.45 9.62,-0.59 11.96,1.79 2.44,2.45 -0.6,0.47 1.14,2.89l1.58 -0.41c1.48,-0.09 -0.16,-0.29 2.75,-0.01 0.13,0.01 6.04,0.99 6.24,1.01 4.83,0.55 8.91,0.75 13.78,0.46l-0.21 -0.31 0.21 0.31c-3.23,-4.42 0.99,-1.61 4.3,0.01l1.03 -1.96c0.54,-1.47 0.01,-4.45 3.46,-3.33l7.12 5.65 -12.32 -0.35 8.14 0.94c4.76,0.01 23.19,1.71 26.28,-0.76 -3.95,-1.29 -5.15,-0.2 -9.85,-0.01 -5.52,0.21 -6.8,0.35 -10.26,-1.84 -0.44,-2.26 -0.26,-2.79 2.04,-4.23 3.14,-1.97 1.42,2.47 3.32,-2.15 -1.79,-0.75 0.51,-0.25 -2.79,-0.2 -1.72,0.02 -2.6,0.17 -3.29,0.2 -1.6,0.08 -5.76,0.23 -8.5,0.49z"/>
    <path class="fil7" d="M1782.9 362.61c1.68,-0.07 1.17,-0.44 3.81,-0.04 6.98,1.06 -4.74,-1.35 2.33,0.5l2.18 0.89 7.38 0.5 3.76 -2.27c0.24,-0.13 0.58,-0.29 0.83,-0.41l3.66 -1.55c-4.38,-2 -29.39,-5.02 -36.67,-5.02 -2.85,1.93 4.28,2.62 -4.85,1.43 -0.96,2.02 1.41,1.41 -1.45,1.7 -0.19,0.02 -0.9,-0.11 -1.11,-0.17 -5.08,-1.52 0.15,1.19 -1.79,-1.05l-2.75 1.48c5.83,-0.97 2.08,1.79 2.08,1.8 -0.34,-0.09 -0.82,-0.7 -0.98,-0.4 -0.27,0.5 -1.75,-1.68 -5.28,-1.28 -1.83,0.21 -1.3,0.2 -2.74,1.16 -3.51,2.31 -1.01,1.93 5.9,1.68 7.47,-0.27 18.65,-0.9 25.69,1.05zm22.19 4.01l1.49 -0.08 0.94 -3.15c5.93,0.93 5.9,1.34 10.63,0.81l-10.21 -2.73c-0.97,1.17 0.27,-1.04 -1.46,2.13 -0.69,1.25 -0.94,2.04 -1.39,3.02zm-63.02 -2.56l3.66 -0.12c2.25,-2.53 -2.69,-0.48 2.64,-2.45 -0.41,0.04 -0.88,-0.33 -1.46,-0.45l-5.89 2.36c0.21,0.14 0.71,0.42 1.05,0.66z"/>
    <path class="fil3" d="M1691.02 603.97c2.94,3.84 0.03,1.14 2.96,1.59 -0.02,2.25 -0.51,1.77 1.72,1.12 -0.17,2.17 -0.58,1.38 1.86,1.87 0,-2.97 0.83,-2.6 -1.86,-1.87 0.15,-2.43 0.63,-1.94 -1.72,-1.12l-2.96 -1.59zm-4.2 -22.78c-0.91,0.85 -1.61,-1.04 -2.75,4.24 -0.21,0.94 -0.14,2.12 0.04,3.09 0.44,2.3 0.6,1.93 1.26,3.03l0.57 -2.49c-0.14,5.53 1.17,1.91 1.58,5 0.05,0.38 -1.64,2.1 2.35,7.25 2.25,2.9 3.42,2.82 7.47,4.41 4.1,1.6 4.86,2.97 8.77,0.96 -7.9,-4.25 -8.23,-3.01 -10.64,-7.22 -2.59,-4.5 -3.08,-7.9 -2.39,-14.28 0.54,-5.08 2.8,-4.83 0.72,-8.72 1.89,2.15 2.93,-0.29 5.36,-1.37 2.61,-1.16 5.38,-1.31 7.98,-2.43 -6.4,-2.61 -6.91,-1.49 -12.77,1.45l-5.58 3.55c-1.08,1.26 -1.69,3.23 -1.97,3.53zm0.71 17.46c1.29,2.86 1.01,2.52 2.5,3.91 -1.78,-5.79 0.25,-0.78 -2.5,-3.91zm0.45 0.14l-1.69 -2.65c0.24,3.1 -0.73,2.65 1.69,2.65zm-1.18 -2.8l-1.91 -3.04 1.91 3.04zm2.29 -18.71c-2.25,0 -1.52,-0.4 -0.86,2.11 -2.07,-0.38 -1.3,-0.69 -1.75,1.68l1.75 -1.68 0.86 -2.11zm5.96 -5.06l-2.49 1.94 -1.45 0.55 1.45 -0.55c2.52,0.18 1.59,0.68 2.49,-1.94zm-0.43 -0.09c2.57,0.39 2.09,1.09 2.16,-1.19l-2.16 1.19zm3.02 -0.61c3.57,0.49 1.67,0.79 3.68,-1.7 -5.7,0.6 -2.74,-0.12 -3.68,1.7z"/>
    <path class="fil9" d="M1905.82 497.65l0.58 41.3c1.31,5.35 0.33,6.71 -1.23,12.01 0.32,-0.28 0.77,-1.14 0.93,-0.85 0.16,0.27 0.69,-0.61 0.9,-0.76l3.44 -1.68c0.91,-0.24 1.74,-0.3 2.01,-0.39 5.72,-1.86 2.02,-7.56 3.55,-13.45l2.4 -5.45c-0.54,0.42 -1.63,-0.04 -1.92,0.78 -1.55,4.48 0.8,-0.7 -2.3,1.06 -1.36,2.22 3.53,2.89 -2.02,1.73 -1.63,-3.53 -0.64,-5.27 -3.8,-10.55l2.29 -0.61c-1.56,-3.24 2.55,-10.61 -1.09,-14.74 -3.95,-4.48 -0.62,5.69 -1.6,-0.51 -0.69,-4.3 -0.23,-5.26 -2.14,-7.89z"/>
    <path class="fil8" d="M1697.03 717.09l1.27 0.83 -1.27 -0.83c-0.64,-5.73 -2.12,-5.87 -3.01,-11.9l-5.24 -6.5c-0.2,0.26 -0.47,0.36 -0.58,0.81l-5.13 4.54c5.98,5.26 4.61,2.95 5.46,2.69 0.15,-0.04 0.53,-0.24 0.68,-0.29 0.14,-0.06 0.59,-0.27 0.72,-0.32 0.13,-0.06 0.48,-0.28 0.75,-0.32 -2.4,3.19 0.25,3.24 0.3,3.27 -5.43,-2.76 -1.63,-1.23 -4,0.66 -2.26,1.81 0.05,-0.79 -1.78,2.37l-3.83 12.71 -4.64 1.14c0.25,0.22 0.71,0.15 0.84,0.57l5.24 3.31 1.5 -4.34c5.24,-6.48 -0.1,-6.87 5,-8l4.15 -0.59c-1.75,2.93 -0.62,2.43 0.93,5.36l2.64 -5.17zm-17.85 15.86c-7.18,3.04 -0.53,-1.98 -3.5,0.26 2.72,3.29 -0.35,1.5 3.44,1.99l0.06 -2.25c2.18,-0.59 0.59,2.72 2.28,-2.31 -3.04,-3.7 -1.82,-1.76 -2.28,2.31zm14.37 -28.16l-2.16 -7.24c-0.1,-0.35 -0.15,-0.69 -0.24,-1.02l-1.36 -4.1 -0.44 2.27c-2.66,-2.3 -1.77,-2.87 -3.26,-5.04l-3.33 6.85c5.53,2.75 3.07,1.46 6.83,0.4l3.96 7.88z"/>
    <path class="fil3" d="M1777.03 618.46c-11.46,3.13 -15.95,-0.81 -23.3,1.31 -3.29,12.32 15.47,11.69 21.22,9.99 5.34,-1.58 4.73,-2.25 6.74,-6 -4.54,1.43 0.39,1.92 -5.87,0.32 0.03,-0.03 -0.58,-2.14 4.52,0.63 -0.73,-6.65 -0.63,-2.2 1.5,-3.22 -0.36,-2.18 0.21,-1.73 -1.96,-0.91 0.71,-2.57 1,-1.65 -2,-1.86l2 1.86 -2.85 -2.12z"/>
    <path class="fil8" d="M1914.18 530.22c-1.86,-5.83 1.29,-31.33 -1.52,-44.95l-2.33 -5.78c-0.83,3.36 1.49,-0.68 -2.09,0.87l-3.28 1.59 2.16 8.78c-0.08,-4.62 2.65,-0.21 -2.5,-5.01l1 5.66c0.45,0.98 2.57,-2.87 0.04,1.87l0.16 4.4c1.91,2.63 1.45,3.59 2.14,7.89 0.98,6.2 -2.35,-3.97 1.6,0.51 3.64,4.13 -0.47,11.5 1.09,14.74l-2.29 0.61c3.16,5.28 2.17,7.02 3.8,10.55 5.55,1.16 0.66,0.49 2.02,-1.73z"/>
    <path class="fil6" d="M1880.55 411.04c-0.92,2.3 -1.05,2.75 -2.07,4.4 3.31,3.01 2.11,2.54 4.58,6.58 2.32,3.81 3.16,4.39 7.66,4.81l-1.9 0.37c1.29,7.39 -0.16,0.86 2.27,3.67l3.47 -2.93c-1.69,-1.06 -1.38,-0.71 -3.84,-1.11 -0.74,-3.85 -1.72,-4.34 -3.86,-8.36 -0.74,-1.39 -1.26,-2.8 -2.33,-4.14l-3.98 -3.29zm6.88 6.39c1.19,1.87 0.13,0.71 1.53,2.32 1.57,1.81 0.58,1.16 2.62,2.38 0,2.25 -0.55,1.66 1.74,1.66 0,-2.64 0.71,-2.24 -1.74,-1.66 -0.54,-2.19 0.52,-1.11 -0.91,-2.81 -0.14,-0.16 -0.41,-0.51 -0.58,-0.67l-1.68 -0.91c-0.19,-0.11 -0.64,-0.27 -0.98,-0.31 0.42,-4.87 1.68,-0.86 -0.67,-4.22 -2.82,-4.03 -1.04,-1.41 -4.26,-1.9 0.94,-2.59 1.68,-2.38 -0.93,-1.68 0.66,-2.52 0.96,-1.84 -1.67,-1.22 0.08,-4.21 1.04,-0.44 -1.44,-4.38 -0.14,-0.23 -0.4,-0.5 -0.55,-0.71 -0.15,-0.22 -0.41,-0.49 -0.57,-0.71 -0.16,-0.21 -0.39,-0.5 -0.55,-0.72 -2.39,-3.26 -1.42,-2.88 -4.8,-5.43 -8.18,-1.24 -3.65,-0.03 -6.67,-3.26 -0.16,-0.17 -0.37,-0.47 -0.53,-0.65l-1.71 -1.91c-0.6,-0.74 -0.77,-0.69 -1.58,-2.33 5.73,2.69 4.72,4.15 9.23,7.32l-12.54 -11.56c2.68,2.97 -3.04,1.78 3.16,2.6 -3.16,3.54 1.61,-0.66 -1.57,0.89l-1.64 1.31 2.73 2.63c5.37,4.58 8.17,6.19 12.21,12.82l0.91 1.63c3.86,6.18 -0.16,1.27 5.71,3.87 -2.8,-4.46 -3.19,-3.35 -4.86,-7.26l5.06 5.85 1.67 1.22 0.93 1.68 4.93 6.12zm10 12.71l0.28 1.48 2.07 2.31 1.07 1.97 -1.07 -1.97c-0.44,-3.95 0.45,-1.11 -2.07,-2.31l-0.28 -1.48c-0.75,-3.57 0.25,-1.07 -1.89,-2.2 0.59,-4.03 0.84,-1.63 -1.96,-1.97 1.19,-2.1 1.81,-1.75 -0.48,-1.75l0.48 1.75 1.96 1.97c0.24,3.64 -0.44,1.49 1.89,2.2z"/>
    <path class="fil3" d="M1787.06 762.38l-0.06 3.61c0.03,0.19 0.06,0.61 0.12,0.78 0.84,2.49 -0.82,1.04 2.61,1.98 -3.06,2.41 -1.56,0.74 -3.37,4.6l7.62 -1.52 -0.57 2.81c4.82,-0.76 17.98,-2.47 21.72,-5.43 -3.46,-4.24 3.11,-1.93 -5.84,-3.45 -4.45,-0.76 -0.55,1.85 -20.12,-2.51l0.11 -0.45c-0.05,-0.08 -0.15,-0.43 -0.21,-0.53 -0.1,-0.16 -0.37,-0.56 -0.49,-0.74l-1.52 0.85z"/>
    <path class="fil9" d="M1806.58 366.54c3.47,1.92 3.43,1.68 7.59,2.55 2.15,0.45 2.25,0.21 4.05,1 2.96,1.3 1.48,0.37 3.11,2.22l11.41 3.39c-0.13,-0.29 -0.34,-1.07 -0.4,-0.88l0.72 -5.81c-0.96,-0.84 -0.46,-0.68 -2.15,-1.58l-24.06 -7.2 -3.66 1.55c-0.25,0.12 -0.59,0.28 -0.83,0.41l-3.76 2.27c0.94,2.65 3.02,1.83 6.49,2.16 0.45,-0.98 0.7,-1.77 1.39,-3.02 1.73,-3.17 0.49,-0.96 1.46,-2.13l10.21 2.73c-4.73,0.53 -4.7,0.12 -10.63,-0.81l-0.94 3.15z"/>
    <path class="fil9" d="M1698.53 663.66c-2.6,0.08 -1.56,-1.33 -1.56,2.1 -2.39,-0.85 -1.94,-1.25 -1.3,1.21 -1.91,-0.25 -1.51,-0.7 -1.36,1.17l-1.2 1.33 -1.71 1.33c2.18,0 1.78,0.62 1.71,-1.33 1.76,0.04 1.34,0.46 1.2,-1.33 2.19,-0.03 2.13,0.65 1.36,-1.17l1.89 0.27 -0.59 -1.48c2.03,-0.97 2.33,2.61 1.56,-2.1 2.09,-1.69 -0.97,-0.97 2.1,-0.44 3.45,-0.54 5.87,-1.65 8.23,-2.52l3.51 -0.01 11.66 -8.93 0.42 -2.04 2.38 0.68 0.96 -4.72c0.06,-0.14 0.45,-0.32 0.51,-0.71 0.06,-0.44 0.42,-0.5 0.63,-0.74 -9.03,3.02 -21.1,8.11 -27.85,15.62 -0.24,0.27 -0.93,1.11 -1.14,1.4 -1.3,1.78 -0.38,0.41 -1.41,2.41z"/>
    <path class="fil8" d="M1650.73 687.78c5.87,-8.51 -0.5,-33.74 -15.68,-25.12 9.22,-0.37 1.56,0.69 6.09,1.66l2.69 -0.43c0.9,2.07 1.25,-0.54 0.3,1.75l-1.17 0.76c2.09,2.59 0.2,0.13 3.15,1.45l-2.03 1.88c-1.71,1.56 0.47,-3.03 -0.47,0.44 5.2,4.11 4.45,2.1 4.51,8.78l-1.48 0.73c-0.08,0.05 -0.48,0.3 -0.57,0.37 -2.24,1.88 2.27,-5.43 -1.21,1.4 0.22,0.64 0.1,4.07 0.05,4.49 4.42,-1.19 2.4,1.4 4.72,-1.62l1.1 3.46zm-0.16 5.55l0.89 -2.31 -2.89 -4.37c-0.85,0.5 -2.68,1.66 -3.67,2.34 2.07,2.35 1.58,1.86 2.53,5.01l3.14 -0.67z"/>
    <path class="fil8" d="M1926.94 720.87c-2.18,-5.53 -0.24,-1.75 -2.02,-2.54 -2.28,-0.88 -4.42,2.44 -0.31,-2.74l-0.76 -0.19c-3.57,1.73 0.8,1.73 -2.09,0.1 -3,-1.7 -0.99,-0.81 -1.1,-2.4 -0.21,-0.22 -0.63,-0.44 -0.73,-0.57 -0.11,-0.14 -0.51,-0.62 -0.61,-0.76l-0.73 -2.24c1.63,1.6 0.99,0.55 2.32,0.8l-2.27 -1.01c-3.42,0.7 -1.05,0.54 -1.55,-1.06 -1.71,-0.51 -3.39,1.65 -0.05,-1.83l-0.94 -1.05c-3.43,3.43 -1.32,1.82 -1.91,0.1 -2.16,0.97 -1.69,1.17 -0.96,-1.05 -2.69,1.13 -1.75,1.13 -1.06,-1.81 -2.43,-1.33 -0.2,3.9 -0.64,-0.88 -0.03,-0.41 0.57,-0.35 0.85,-0.53l-2.04 -0.87 -0.15 -1.27c-2.22,0.14 -1.95,0.77 -1.56,-1.21 -3.25,0.59 -3.27,1.6 -1.92,-1.3 -2.24,0.99 -1.46,0.96 -0.87,-1.46l-1.74 -1c0.03,-0.05 0.33,-0.2 0.35,-0.43 0.02,-0.23 0.27,-0.28 0.39,-0.41l-1.58 -1.58c-2.84,1.58 1.54,2.69 -2,-0.68 -0.13,-0.13 -0.43,-0.78 -0.5,-0.9 -2.06,-3.58 -1.46,0.57 0.07,-0.63 -1.74,-2.74 -0.43,-1.37 -3.09,-3.5 -1.68,-1.35 -2.28,-1.49 -4.42,-3.03 2.14,3.79 2.89,3.58 6.12,5.06l-0.86 1.69c-0.11,0.22 -0.38,0.68 -0.5,0.96 -0.69,1.64 -1.13,2.66 -1.74,5.54 3.55,0.38 1.63,0.25 5.63,-0.98 1.53,1.91 0.13,1.23 0.74,3.24 2.12,0.97 0.76,0 2.78,2.16 0.7,0.76 0.13,0.82 2.03,2.39l-2.43 1.07 5.18 4.42c0.6,0.49 2.14,1.86 2.7,2.26 4.79,3.43 7.9,5.98 11.63,12.26 3.81,-4.33 -0.57,0.72 0.84,-3.96l1.5 1.82zm0.98 2.22l-1.05 -1.78 0.56 2.23c0.06,-0.04 0.34,-0.29 0.49,-0.45z"/>
    <path class="fil6" d="M1927.43 757.33c-2.17,2.56 -3.66,3.12 -6.33,5.84 -2.27,2.31 -4.65,5.02 -6.41,6.3 -5.18,3.8 -10.52,5.44 -16.58,7.26l-3.22 0.18 -0.31 2.43c15.31,0 17.49,-3.42 26.14,-10.25 7.36,-5.79 7.49,-6.64 12.31,-12.74 0.16,-0.21 0.41,-0.48 0.56,-0.68 1.96,-2.59 2.29,-4.09 3.64,-7.17 -2.38,2.77 -2.22,3.07 -4.08,5.58 -7.1,9.49 -5.23,8.25 -9.01,8.11 -1.84,-0.07 0.96,1.42 -1.91,-0.52 3.37,-1.44 3.64,-0.89 5.2,-4.34z"/>
    <path class="fil4" d="M1882.73 513.14c1.3,-1.38 0.72,0.74 2.16,-3.24 0.57,-1.59 0.53,-2.42 0.74,-4.16 0.46,-3.93 0.58,-7.8 0.55,-11.8 -1.65,-1.8 -4.87,-1.85 -4.87,-1.85 -3.8,-1.3 0.57,-1.09 -5.34,-2.93l3.17 10.94c3.24,8 2.84,1.41 1.05,7.31l-0.49 4.8c0.03,0.32 0.17,0.83 0.21,1.09 0.04,0.28 0.14,0.77 0.26,1.14 2.16,-1.08 1.43,-0.1 2.32,-3.38l0.24 2.08zm-1.34 3.39c1.96,-0.59 1.04,1.42 1.9,-3.19l-1.9 3.19z"/>
    <path class="fil9" d="M1582.13 732.44c-3.02,6.94 -5.48,10.7 -2.51,19.79 1.98,1.61 0.97,-1.82 2.42,3.17 0.12,-0.13 1.45,-1.03 1.8,-1.27l2.57 -1.83c-1.27,-6.88 -1.63,-8.07 -0.34,-15.67 -0.34,-3.13 -1.32,-2.76 1.07,-2.67l-0.03 -0.71 -0.26 -3.37c-1.07,2.25 -1.77,3.51 -2.93,6.44 0.13,-2.96 0.19,-2.56 1.14,-5.12 -6.95,6.39 1.79,-3.33 -2.93,1.24z"/>
    <path class="fil8" d="M1587.11 733.25c2.85,-6.16 2.17,-2 6.17,-8.07l13.18 -28.66c-3.12,1.8 -1.41,0.21 -3.48,3.32 -1.73,2.6 -0.68,1.7 -2.95,4.54 -1.65,2.09 -3.88,5.37 -5.86,7.2l-0.36 2.68c-2.22,-0.24 -1.64,-0.72 -1.64,1.54 2.15,0 1.64,0.56 1.64,-1.54l0.36 -2.68 6.71 -4.01c0.11,0.74 -3.68,3.89 -4.24,6.53l-0.04 1.55c-0.07,1.44 0.03,2.43 -0.2,4.7 -1.89,-2.85 -1.09,0.93 -1.43,-2.96 -0.05,-0.59 0.41,-1.11 0.65,-1.45l-10.49 14.25c-0.2,0.14 -0.62,0.36 -0.91,0.56l0.57 -2.2c0.08,-0.2 0.34,-0.8 0.42,-0.99 0.08,-0.19 0.33,-0.62 0.51,-0.93 -2.67,1.92 -2.72,2.72 -3.59,5.81 4.72,-4.57 -4.02,5.15 2.93,-1.24 -0.95,2.56 -1.01,2.16 -1.14,5.12 1.16,-2.93 1.86,-4.19 2.93,-6.44l0.26 3.37zm0.03 0.71c-2.39,-0.09 -1.41,-0.46 -1.07,2.67l1.07 -2.67z"/>
    <path class="fil6" d="M1848.05 376.41c0,1.84 -0.47,1.4 1.35,1.4l-1.35 -1.4c-0.21,-0.17 -0.56,-0.72 -0.66,-0.51l-6.02 -3.88c-3.08,-1.91 -4.13,-2.66 -8.31,-3.01l-0.72 5.81c0.06,-0.19 0.27,0.59 0.4,0.88 0.21,0.21 0.54,0.23 0.65,0.58l14.02 6.57 1.01 -4.11c-0.25,0.12 -0.62,0.14 -0.68,0.47 -0.66,3.45 -4.61,-0.12 -4.61,-0.12l4.92 -2.68z"/>
    <path class="fil6" d="M1607.22 774.93l0.37 -0.05c-2.11,-2.05 -4.13,-3.35 -6.13,-4.91l-3.44 -2.78c-7.04,-5.42 -8.46,-6.21 -11.61,-14.89l-2.57 1.83c-0.35,0.24 -1.68,1.14 -1.8,1.27 -1.45,-4.99 -0.44,-1.56 -2.42,-3.17 3.58,8.11 4.27,8.71 12.03,13.82 3.08,2.02 4.96,2.81 7.82,4.72 4.77,3.19 3.72,4.09 7.75,4.16z"/>
    <path class="fil9" d="M1926.94 720.87l-0.07 0.44 1.05 1.78c1.68,2.78 4.12,7.09 5.93,9.58 0.75,-2.39 1.01,-2.36 1.72,-3.4 0,7 1.42,2.41 -2.24,7.24l0.31 4.33 1.12 -5.42c1.35,1.26 1.98,-5.23 1.82,3.73 1.35,-6.03 -0.86,-2.9 2.36,-3.04l-1.7 8.09c3.73,-1.56 1.48,0.15 3.08,-3.25 1.13,-2.44 0.61,-2.27 0.68,-5.1 -5.37,-2.66 -4.38,-6.77 -8.54,-15.62 -2.94,-6.27 -0.17,-2.38 -4.01,-4.41 0.5,4.68 0.63,2.69 -1.51,5.05z"/>
    <path class="fil9" d="M1858.19 384.07c-0.48,-1.51 0.74,-0.71 -2.89,-3.3 -2.68,-1.92 -3.01,-2.21 -5.9,-2.96 -1.82,0 -1.35,0.44 -1.35,-1.4l-4.92 2.68c0,0 3.95,3.57 4.61,0.12 0.06,-0.33 0.43,-0.35 0.68,-0.47l-1.01 4.11c5.61,2.48 5.17,4.25 10.73,6.02l1.64 -1.31c3.18,-1.55 -1.59,2.65 1.57,-0.89 -6.2,-0.82 -0.48,0.37 -3.16,-2.6zm13.8 12.39l-1.26 -0.83c-4.51,-3.17 -3.5,-4.63 -9.23,-7.32 0.81,1.64 0.98,1.59 1.58,2.33l1.71 1.91c0.16,0.18 0.37,0.48 0.53,0.65 3.02,3.23 -1.51,2.02 6.67,3.26z"/>
    <path class="fil6" d="M1737.3 421.74c-4.85,0.74 -2.29,-0.09 -3.09,1.83l-8.96 5.96c-0.16,0.22 -0.34,0.56 -0.49,0.79 -1.28,2.06 -0.11,-0.08 -1.46,2.78 4.19,-1.2 3.15,0.28 5.64,-4.47 0.02,0.05 0.36,0.36 0.91,1.88 1.12,3.08 0.35,0 1.11,3.93l1.18 -1.47c2.85,-4.15 3.97,-1.53 2.51,-5.62 3.9,0.35 2.72,1.96 6.42,-0.62l-3.22 -4.67c-0.09,-0.06 -0.39,-0.18 -0.55,-0.32zm-13.13 5.19c3.48,-0.64 1.33,0.15 1.65,-1.69l-1.65 1.69zm6.61 -2.14l2.98 -1.76c-4.35,0.72 -2.42,-0.11 -2.98,1.76z"/>
    <path class="fil8" d="M1706.24 724.02l-3.4 -0.81 -1.74 0.37c-0.09,0.03 -0.49,0.23 -0.57,0.26 -0.09,0.03 -0.42,0.17 -0.61,0.28 1.77,6.83 0.06,2.29 3.57,3.77 -1.61,0.94 0.42,1.24 -3.91,-0.06l-4.98 3.69 4.84 7.21c-0.98,-7.24 -2.67,-9.56 2.2,-8.34 2.2,0.56 1.31,0.13 2.97,1.26 0.24,1.88 -0.31,4.39 -0.31,4.4l0.75 2.86c0.1,0.25 0.39,0.65 0.64,0.94 0.36,-1.85 0.33,-3.19 1.1,-5.09 2.02,-4.96 3.65,0.68 0.99,-1.48 -0.2,-9.05 -3.35,-4.26 -1.54,-9.26zm-7.49 -4.85c1.48,4.36 -0.37,2.21 3.35,4.34 -1.55,-1.47 -2.31,-2.66 -3.35,-4.34z"/>
    <path class="fil6" d="M1776.15 409.03l-5.2 1.14c2.46,0.06 1.31,0.36 2.88,-0.04 3.34,-0.87 1.21,0.98 2.32,-1.1zm10.73 1.79c-1.17,-0.79 -0.52,-0.8 -2.82,-1.4 -1.52,-0.4 -3.07,-0.41 -4.48,-0.5 -5.72,5.04 -5.23,1.2 -9.98,4.8 17.96,1.46 -6.66,3.07 16.62,3.84l-3.59 -6.69 4.25 -0.05z"/>
    <path class="fil6" d="M1668.53 770.76l0.08 0.59 9.57 4.21 2.17 -5.55c0.16,-0.26 0.8,-0.53 1.7,-2.57 -6.3,-1.42 -4.49,-4.92 -7.16,2.07l-2.67 -5.56c-1.53,4.07 4.5,11.96 -1,5.45 -0.97,1.15 -1.72,0.88 -2.69,1.36z"/>
    <path class="fil9" d="M1594.17 711.58l-0.36 2.68c0,2.1 0.51,1.54 -1.64,1.54 -2.55,2.89 -5.14,6.45 -6.45,10.83 -0.18,0.31 -0.43,0.74 -0.51,0.93 -0.08,0.19 -0.34,0.79 -0.42,0.99l-0.57 2.2c0.29,-0.2 0.71,-0.42 0.91,-0.56l10.49 -14.25c-0.24,0.34 -0.7,0.86 -0.65,1.45 0.34,3.89 -0.46,0.11 1.43,2.96 0.23,-2.27 0.13,-3.26 0.2,-4.7l0.04 -1.55c0.56,-2.64 4.35,-5.79 4.24,-6.53l-6.71 4.01z"/>
    <path class="fil9" d="M1667.47 742.98l0.86 -0.3 1.13 -1.32c-0.98,-2.61 1.19,-0.73 -1.97,-2.59 -0.27,0.21 -0.66,0.25 -0.79,0.67 -0.52,1.72 -4.77,1.07 -6.92,1.99 -3.78,1.6 -5.04,3.11 -9.04,3.94 2.33,2.6 1.31,1.88 4.02,3.32 1.3,0.69 1.85,0.53 3.7,1.66 -1.14,-3.82 1.8,-0.02 -5.17,-3.64 0.28,-0.17 0.71,-0.79 0.83,-0.54 0.14,0.26 0.66,-0.42 0.84,-0.51 0.07,-0.04 2.09,-1.02 2.45,-1.2 1.1,1.68 -0.26,2.47 1.19,1.16 4.9,0.41 4.76,-0.13 8.87,-2.64z"/>
    <path class="fil3" d="M1787.41 738.95c0.46,-0.87 -0.71,1.36 0,0zm4.11 1.16c0.78,-2.97 1.76,-2.71 -0.13,-6.54 -1.13,-2.3 -3.51,-3.37 -5.74,-4.18 -0.8,6.6 1.64,-1.98 -0.14,6.53l-0.36 1.95c0.94,5.15 5.45,2.43 6.37,2.24z"/>
    <path class="fil4" d="M1692.77 489.66c0.91,2.6 0.66,3.08 0.4,5.45 2.31,-0.14 0.61,-0.34 2.47,0.38l2.36 1.19c0.16,0.08 0.53,0.28 0.82,0.36 0.39,-0.49 1.18,1.29 1.77,-2.9 0.18,-1.25 -0.5,-8.74 -6.96,-11.15 -1.09,5.45 2.04,3.29 6.11,10.66 0.09,0.16 0.34,0.54 0.51,0.81l-7.48 -4.8z"/>
    <path class="fil9" d="M1625.46 751.77l2.5 -16.42 -0.02 3.18c-7.31,-0.33 -2.81,-0.09 -3.16,-0.67 -0.59,4.82 1.41,3.03 -2.72,8.41 1.48,4.03 -0.91,1.48 2.61,3.85l-3.41 4.29c4.77,2.92 0.66,-0.71 3.28,4.87l0.92 -7.51z"/>
    <path class="fil3" d="M1883.28 774.21c1.01,0.76 0.63,0.63 2.36,1.5 0.19,0.09 2.26,1 2.63,1.15 2.1,0.87 4.25,1.49 6.31,2.48l0.31 -2.43 3.22 -0.18 -11.07 -5.49 -3.76 2.97z"/>
    <path class="fil9" d="M1666.42 493.24l6.92 -0.16c-1.75,-4.94 1.2,-4.57 -3.02,-3.6 0.94,-1.26 -0.4,-0.09 1.36,-1.49l2.21 -1.51c-7.13,-0.68 -2.23,0.15 -6.82,-2.04 0.16,5.6 -1.95,3.24 -0.65,8.8z"/>
    <path class="fil3" d="M1684.48 788.74l-0.21 -0.31 3.8 0.33 12.32 0.35 -7.12 -5.65c-3.45,-1.12 -2.92,1.86 -3.46,3.33l-1.03 1.96c-3.31,-1.62 -7.53,-4.43 -4.3,-0.01z"/>
    <path class="fil4" d="M1885.8 490.41c-0.11,-1.61 -0.16,-5.14 -0.51,-6.55 -1.19,-4.76 -1.45,-3.14 -2.52,-4.25l-1.28 1.99c-1.33,3.87 -2.31,10.1 4.31,8.81z"/>
    <path class="fil8" d="M1710.68 782.36l0.08 0.8c2.02,0.4 1.32,-1.33 4.29,-0.08l5.17 3.72c5.1,-3.63 5.42,0.2 5.8,-5.62 -4,-0.54 -3.65,0.58 -7.02,2.6l-4.15 -1.69c1.83,-1.5 -2.04,-0.84 4.44,-2.36l-6.48 0.48c0.14,2.4 0.6,1.49 -2.13,2.15z"/>
    <path class="fil8" d="M1803.36 668.95l-5.28 -1.54c-0.23,3.48 -6.49,1.36 -9.03,0.88 3.86,4.69 -1.13,0.66 2.17,2.31 2.65,1.32 8.55,0.88 11.75,1.13 0.19,0.29 0.47,0.43 0.53,0.9l1.51 3.11c-2.67,-8.04 5.99,-0.35 1.81,-4.43 -1.92,-1.87 -3.89,-0.03 -8.84,-2.28l5.38 -0.08z"/>
    <path class="fil9" d="M1670.61 732.26c0.27,2.26 0.96,2.1 -1.03,1.53 -3.07,4.01 0.66,2.41 -4.87,2.76l1.36 0.76c1.8,1.52 -1.33,-2.35 1.35,1.42 4.36,-1.64 1.8,-0.21 3.49,-2.38 4.75,2.25 -0.63,0.05 4.77,-4.07 -1.75,-2.95 2.1,-3.81 -2.9,-1.87 -1.26,3.23 0.51,0.52 -2.17,1.85z"/>
    <path class="fil8" d="M1820.5 698.98c-0.28,-0.12 -0.65,-0.3 -0.82,-0.36l-4.36 -0.85c0.16,2.57 -2.52,0.21 2.09,2.51l-2.2 3.82c-0.74,2.32 -0.19,1.37 -1.74,3.65 5.91,2.02 -0.29,1.73 5.77,1.08 -2.6,-1.41 -1.6,-0.07 -2.83,-3.72l3.53 -5.31c0.08,-0.47 0.36,-0.56 0.56,-0.82z"/>
    <path class="fil9" d="M1726.94 778.55l8.15 -1.25c-1.63,-4.72 -2.71,-6.12 -5.44,-3.77l-2.71 5.02z"/>
    <path class="fil2" d="M1697.47 525.74l0.11 -3.1 -2.24 -0.04c-2.68,-2.83 -0.85,-1.75 -0.29,-1.96 -5.36,2.03 -3.71,0.83 -7.6,1.46 -0.56,3.47 0.13,1.34 -0.98,3.66 5.91,-0.11 3.91,-1.71 8.33,-2.4l2.67 2.38z"/>
    <path class="fil6" d="M1698.53 663.66c0.77,4.71 0.47,1.13 -1.56,2.1l0.59 1.48 6.73 -0.47c1.98,-1.98 -2.3,-0.59 3.02,-2.31l-4.61 -0.5c-0.33,-0.08 -0.81,-0.27 -1.1,-0.34 -0.27,-0.07 -0.65,-0.27 -0.97,-0.4 -3.07,-0.53 -0.01,-1.25 -2.1,0.44z"/>
    <path class="fil6" d="M1728.93 644.23c-0.21,0.24 -0.57,0.3 -0.63,0.74 -0.06,0.39 -0.45,0.57 -0.51,0.71l-0.96 4.72 -2.38 -0.68 -0.42 2.04c1.01,0.17 0.88,0.39 2.8,-1.36l-0.16 -0.2c1.2,-1.16 2.61,-2.9 4.05,-4.18l2.16 -1.54c0.31,-0.21 0.67,-0.41 0.97,-0.62 0.33,-0.22 0.76,-0.52 1.04,-0.71 0.3,-0.21 0.73,-0.51 1.08,-0.79 -3.54,0.59 -4.85,1.04 -7.04,1.87z"/>
    <path class="fil8" d="M1885.05 724.63c-1.25,5.89 0.96,3.17 -4.62,5.44l2.73 1.96 2.21 -0.02 2.19 -8.19 -0.59 -0.47c0,2.46 0.55,1.92 -1.92,1.28z"/>
    <path class="fil9" d="M1614 761.39l0.8 1.63 3.08 0.83 1.53 0.8c2.88,3.12 0.65,1.95 5.14,3.74 -1.83,-1.84 -0.63,-3.44 0.07,-6.72 -2.79,2.41 -2.47,2.3 -7.36,2.13 -0.02,-0.03 -4.95,-1.5 0.17,-4.2l-3.43 1.79z"/>
    <path class="fil8" d="M1790.03 666.98c-1.26,-2.28 -4.21,-1.98 -7.13,-2.71 0,3.22 -0.6,2.31 2.81,1.28 -0.17,0.29 -0.38,0.45 -0.41,0.92l-0.54 2.85c8.96,-1.9 -3.22,-0.6 5.27,-2.34z"/>
    <path class="fil7" d="M1625.76 779l-1.28 1.01c-1.89,0.8 -0.45,0.14 -1.53,1.97l5.49 -1.62c0.19,-0.11 0.46,-0.45 0.72,-0.64 -1.68,-1.08 -0.17,-1.07 -3.4,-0.72zm5.55 5.35l1.01 -0.23 -1.68 -4.27c-2.22,3.21 0.43,0.78 -3.62,3.28 6.04,-0.73 3.17,-0.29 4.29,1.22z"/>
    <path class="fil8" d="M1706.05 704.31l4.67 0.01c-1.91,-2.77 -1.99,-3.89 -4.95,-4.96l0.28 4.95z"/>
    <path class="fil6" d="M1670.83 523.33c4.9,-7.92 -0.54,-7.41 -0.59,-7.43l0.59 7.43z"/>
    <path class="fil8" d="M1787.32 715.56c-3.16,2.26 -1.35,-0.46 -4.43,1.03l1.26 3.43c3,-2.44 1.07,-0.15 3.17,-4.46z"/>
    <path class="fil5" d="M1779.88 620.58l-2 -1.86 -0.85 -0.26 2.85 2.12zm1.81 3.18l0.15 -2.27c-2.13,1.02 -2.23,-3.43 -1.5,3.22 -5.1,-2.77 -4.49,-0.66 -4.52,-0.63 6.26,1.6 1.33,1.11 5.87,-0.32z"/>
    <path class="fil4" d="M1772.06 519.29c3.22,-0.91 2.18,-0.1 3.02,-3.24 -5.27,0.72 -2.34,-1.29 -3.02,3.24z"/>
   </g>
   <rect class="fil0" x="-0.02" y="-0.02" width="3555.35" height="32.52"/>
  </g>
 </g>
</svg>
